<?xml version="1.0" encoding="utf-8"?><svg xmlns="http://www.w3.org/2000/svg" xmlns:xlink="http://www.w3.org/1999/xlink"><symbol fill="none" viewBox="0 0 25 14" id="arrow" xmlns="http://www.w3.org/2000/svg"><g opacity=".5" stroke="#fff" stroke-width="2" stroke-linecap="round" stroke-linejoin="round"><path d="M17.606 1l5.504 5.504-5.504 5.504M23 6.504H1"/></g></symbol><symbol fill="none" viewBox="0 0 36 36" id="bank" xmlns="http://www.w3.org/2000/svg"><path d="M18 29.865v-13.53M11.348 29.865v-13.53M4.696 29.865v-13.53M24.652 29.865v-13.53M31.304 29.865v-13.53M35 15.783H1L18.024 1 35 15.783zM35 30.565H1V35h34v-4.435z" stroke="#005AFF" stroke-width="2" stroke-miterlimit="10" stroke-linecap="round" stroke-linejoin="round"/></symbol><symbol fill="none" viewBox="0 0 35 25" id="bankcard" xmlns="http://www.w3.org/2000/svg"><path d="M5.906 20.356h4.689M5.906 15.87h8.815M33.13 21.862a1.84 1.84 0 01-1.836 1.846H2.837A1.842 1.842 0 011 21.862V3.212c0-1.019.822-1.846 1.837-1.846h28.457c1.014 0 1.836.827 1.836 1.847v18.649z" stroke="#fff" stroke-width="2" stroke-linecap="round" stroke-linejoin="round"/><path d="M33.13 5.818H1v5.565h32.13V5.818z" stroke="#fff" stroke-width="2" stroke-miterlimit="10" stroke-linecap="round" stroke-linejoin="round"/><path d="M26.039 15.852c-.694 0-1.306.32-1.719.813a2.238 2.238 0 00-1.718-.813 2.252 2.252 0 000 4.503c.693 0 1.305-.319 1.718-.812a2.238 2.238 0 001.719.812 2.252 2.252 0 000-4.503z" stroke="#fff" stroke-width="2" stroke-linecap="round" stroke-linejoin="round"/></symbol><symbol fill="none" viewBox="0 0 268 112" id="bg_headbtn" xmlns="http://www.w3.org/2000/svg"><path d="M0 0h268l-31.309 106.261a8 8 0 01-7.674 5.739H0V0z" fill="#005AFF"/></symbol><symbol fill="none" viewBox="0 0 268 112" id="bg_headbtn2" xmlns="http://www.w3.org/2000/svg"><path d="M268 0H0l31.31 106.261A8 8 0 0038.982 112H268V0z" fill="#37455C"/></symbol><symbol fill="none" viewBox="0 0 63 82" id="bg_shevron" xmlns="http://www.w3.org/2000/svg"><path d="M5 82a5 5 0 01-5-5V5a5 5 0 015-5h41.754a5 5 0 014.798 3.595l10.537 36a5 5 0 010 2.81l-10.537 36A5 5 0 0146.754 82H5z" fill="#005AFF"/></symbol><symbol fill="none" viewBox="0 0 32 32" id="box" xmlns="http://www.w3.org/2000/svg"><path d="M24.478 7.521V31H1V7.52" stroke="#005AFF" stroke-width="2" stroke-miterlimit="10" stroke-linecap="round" stroke-linejoin="round"/><path d="M1 7.522L7 1h24v24.157L24.478 31M24.478 7.522L31 1M12.74 7.522L19.26 1M8.826 13.392h7.826M1.326 7.521h23.152" stroke="#005AFF" stroke-width="2" stroke-miterlimit="10" stroke-linecap="round" stroke-linejoin="round"/></symbol><symbol fill="none" viewBox="0 0 40 31" id="cart" xmlns="http://www.w3.org/2000/svg"><path d="M10.823 8.966s.79-4.474 2.763-4.545c1.974-.07 4.428 2.345 5.28.995.854-1.35 2.4-1.918 5.547-2.273 3.146-.355 1.813-2.77 3.787-1.988 1.973.782 5.652 6.534 5.812 7.813M31.598 26.02c0 1.719 1.545 3.11 3.451 3.11 1.906 0 3.451-1.392 3.451-3.11 0-1.716-1.545-3.109-3.451-3.109-1.907 0-3.45 1.393-3.45 3.11z" stroke="#fff" stroke-width="2" stroke-miterlimit="10" stroke-linecap="round" stroke-linejoin="round"/><path d="M1 8.966h3.865l6.983 20.165h2.36l3.357-6.78" stroke="#fff" stroke-width="2" stroke-linecap="round" stroke-linejoin="round"/><path d="M8.023 18.085s20.898 14.662 29.27-6.635H5.727" stroke="#fff" stroke-width="2" stroke-miterlimit="10" stroke-linecap="round" stroke-linejoin="round"/></symbol><symbol fill="none" viewBox="0 0 47 45" id="category6" xmlns="http://www.w3.org/2000/svg"><path d="M38.8 13.44L23.28 4.48 7.76 13.44v17.922l15.52 8.96 15.52-8.96V13.44z" stroke="#fff" stroke-width="2" stroke-miterlimit="10" stroke-linecap="round" stroke-linejoin="round"/><path d="M33.867 4.065H12.694L2.107 22.4l10.587 18.337h21.173l10.586-18.337L33.867 4.065z" stroke="#fff" stroke-width="2" stroke-miterlimit="10" stroke-linecap="round" stroke-linejoin="round"/><path d="M12.453 14.86l7.001 16 7-16M30.453 14.86v16" stroke="#fff" stroke-width="2" stroke-miterlimit="10" stroke-linecap="round" stroke-linejoin="round"/></symbol><symbol fill="none" viewBox="0 0 35 34" id="deep" xmlns="http://www.w3.org/2000/svg"><path d="M17.25 32.333V1M22.295 27.18l-5.045 5.153-5.045-5.154M1 1h32.5M1 32.333h4.919M1 16.667h4.919M1 8.834h3.002M1 24.23h3.002M33.5 32.333H28.58M33.5 16.667H28.58M33.5 8.834h-3.003M33.5 24.23h-3.003" stroke="#fff" stroke-width="2" stroke-miterlimit="10" stroke-linecap="round" stroke-linejoin="round"/></symbol><symbol fill="none" viewBox="0 0 14 20" id="doublechevron" xmlns="http://www.w3.org/2000/svg"><path d="M1 6.504L6.504 1l5.504 5.504" stroke="#fff" stroke-width="2" stroke-linecap="round" stroke-linejoin="round"/><path opacity=".3" d="M1 13.504L6.504 8l5.504 5.504" stroke="#fff" stroke-width="2" stroke-linecap="round" stroke-linejoin="round"/></symbol><symbol fill="none" viewBox="0 0 30 43" id="drill" xmlns="http://www.w3.org/2000/svg"><path d="M6.643 41.779a5.574 5.574 0 100-11.148 5.574 5.574 0 000 11.148z" stroke="#37455C" stroke-width="2" stroke-miterlimit="10" stroke-linecap="round" stroke-linejoin="round"/><path d="M6.643 38.04a1.834 1.834 0 100-3.668 1.834 1.834 0 000 3.668z" stroke="#37455C" stroke-width="2" stroke-miterlimit="10" stroke-linecap="round" stroke-linejoin="round"/><path d="M12.217 34.967l5.438-3.186v-4.138H1V36.5M21.118 40.38V2.4a1.4 1.4 0 011.4-1.4h1.45a1.4 1.4 0 011.4 1.4v39.38h-2.85a1.4 1.4 0 01-1.4-1.4zM17.655 31.781h3.463M13.403 27.642l7.715-5.42M10 27.5V23H1v4.5M1 22.934L4.66 18h3.657v4.934M25.37 24.127l3.588 5.786v11.866H25.37" stroke="#37455C" stroke-width="2" stroke-miterlimit="10" stroke-linecap="round" stroke-linejoin="round"/></symbol><symbol fill="none" viewBox="0 0 38 44" id="employer" xmlns="http://www.w3.org/2000/svg"><path d="M4.639 21.788c0 1.595.27 2.853.757 4.283a2.418 2.418 0 00.986 4.626l.042-.002c.5 6.372 7.743 11.751 12.327 11.751 4.704 0 11.826-5.378 12.326-11.75h.042a2.419 2.419 0 00.986-4.625c.49-1.43.758-2.688.758-4.284" stroke="#fff" stroke-width="2" stroke-linecap="round" stroke-linejoin="round"/><path d="M9.074 22.987l-.348 4.022s-1.32-1.823-3.33-.939M28.468 22.917l.354 4.092s1.32-1.823 3.33-.939" stroke="#fff" stroke-width="2" stroke-miterlimit="10" stroke-linecap="round" stroke-linejoin="round"/><path d="M13.722 4.495c-5.367 1.5-8.672 5.79-9.757 11.13A2.974 2.974 0 001 18.591c0 1.63 1.259 2.418 2.965 2.965 15.243 5.37 29.57 0 29.57 0 1.63-.492 2.965-1.334 2.965-2.965a2.974 2.974 0 00-2.965-2.966c-1.083-5.34-4.333-9.63-9.699-11.13" stroke="#fff" stroke-width="2" stroke-miterlimit="10" stroke-linecap="round" stroke-linejoin="round"/><path d="M20.405 15.163h-3.25a3.432 3.432 0 01-3.433-3.433V4.433A3.432 3.432 0 0117.154 1h3.251a3.432 3.432 0 013.432 3.433v7.297a3.433 3.433 0 01-3.432 3.433z" stroke="#fff" stroke-width="2" stroke-miterlimit="10" stroke-linecap="round" stroke-linejoin="round"/><path d="M16.965 35.537h3.658" stroke="#fff" stroke-width="2" stroke-miterlimit="3.864" stroke-linecap="round" stroke-linejoin="round"/><path d="M21.406 23.996s-1.592.416-1.592 2.521c0 2.65 2.953 5.04 5.264 5.04 2.31 0 3.698-1.403 3.543-4.469-.154-3.066-2.619-3.092-2.619-3.092h-14.56s-2.465.026-2.62 3.092c-.154 3.066 1.234 4.47 3.544 4.47 2.312 0 5.264-2.392 5.264-5.04 0-2.105-1.592-2.522-1.592-2.522" stroke="#fff" stroke-width="2" stroke-miterlimit="10" stroke-linecap="round" stroke-linejoin="round"/></symbol><symbol fill="none" viewBox="0 0 34 32" id="handshake" xmlns="http://www.w3.org/2000/svg"><path d="M20.091 20.091l4.205 5.569s1.583 2.663 3.85 1.675c1.316-.574 1.519-1.79 1.519-2.472 0-1.085-.71-2.045-.71-2.045L19.41 9.182s-1.387 1.275-3.665 2.358c-4.9 2.33-6.563.37-6.563-1.676 0-.975 2.314-1.547 5.682-4.915C17.984 1.83 18.369 1 20.09 1h2.015c3.424 0 4.163.648 6.098 1.938 3.12 2.08 4.16 2.835 4.16 2.835v15.682h-4.09" stroke="#37455C" stroke-width="2" stroke-miterlimit="10" stroke-linecap="round" stroke-linejoin="round"/><path d="M24.779 26.398c.053.553.34 1.96-.959 2.813-2.186 1.434-3.729-.938-3.729-.938l-4.773-6.818M19.814 28.156c-.132.5-.355 1.322-1.278 1.779-2.067 1.023-3.217-.298-3.217-.298l-4.773-6.819" stroke="#37455C" stroke-width="2" stroke-miterlimit="10" stroke-linecap="round" stroke-linejoin="round"/><path d="M15.319 3.727c-6.24 0-7.5 2.045-10.228 2.045h-4.09v15.682h1.363c1.82 0 3.569 2.889 3.569 2.889l3.964 5.633s1.149 1.82 3.315.607c.806-.451 1.21-.984 1.38-1.493" stroke="#37455C" stroke-width="2" stroke-miterlimit="10" stroke-linecap="round" stroke-linejoin="round"/></symbol><symbol fill="none" viewBox="0 0 21 21" id="headphone" xmlns="http://www.w3.org/2000/svg"><path d="M4.455 15.682a.866.866 0 01-.864.864H1.864A.866.866 0 011 15.681v-3.455c0-.475.389-.863.864-.863H3.59c.475 0 .864.388.864.863v3.455zM1 12.227V10.5M1 10.5C1 5.258 5.258 1 10.5 1c5.25 0 9.5 4.258 9.5 9.5M16.546 15.682c0 .475.388.864.863.864h1.727a.866.866 0 00.864-.864v-3.455a.866.866 0 00-.864-.863H17.41a.866.866 0 00-.863.863v3.455zM20 12.227V10.5M11.364 19.136H9.636V20h1.728v-.864z" stroke="#37455C" stroke-width="2" stroke-miterlimit="10" stroke-linecap="round" stroke-linejoin="round"/><path d="M20 11.14v6.27L13.954 20H11.13" stroke="#37455C" stroke-width="2" stroke-miterlimit="10" stroke-linecap="round" stroke-linejoin="round"/></symbol><symbol fill="none" viewBox="0 0 39 46" id="island" xmlns="http://www.w3.org/2000/svg"><path d="M36.128 1.505a1 1 0 00-1.36.312l-1.746 2.7a1 1 0 00-.16.544v3.905a1 1 0 01-.102.438l-5.632 11.538a1 1 0 01-.3.361l-7.612 5.71a1 1 0 00-.303 1.23l.649 1.36a1 1 0 01-.141 1.078l-2.24 2.634a1 1 0 01-.467.308l-3.524 1.085a1 1 0 00-.582.473l-2.371 4.304a1 1 0 01-.662.494l-7.282 1.596a1 1 0 00-.667 1.45l.355.662a1 1 0 00.73.515l4.923.755a1 1 0 00.539-.066l6.101-2.56a1 1 0 00.451-.376l1.609-2.468a1 1 0 00.153-.41l.263-1.91a1 1 0 01.99-.863h1.46a1 1 0 00.597-.198l4.787-3.56c.043-.033.084-.069.121-.107l4.865-5.026c.062-.064.132-.12.208-.165l1.733-1.029a1 1 0 00.376-1.323l-.152-.29a1 1 0 01.383-1.327l1.145-.668a.999.999 0 00.41-.458l1.526-3.437a1 1 0 00.085-.46l-.245-4.498a1 1 0 01.051-.375l1.445-4.272c.027-.081.044-.166.05-.251l.266-3.825a.999.999 0 01.11-.392l.608-1.17a1 1 0 00-.368-1.315l-1.073-.653z" stroke="#fff" stroke-width="2" stroke-miterlimit="10" stroke-linecap="round" stroke-linejoin="round"/></symbol><symbol fill="none" viewBox="0 0 14 22" id="phone" xmlns="http://www.w3.org/2000/svg"><path d="M13 19.333C13 20.25 12.229 21 11.286 21H2.715C1.772 21 1 20.25 1 19.333V2.667C1 1.75 1.772 1 2.715 1h8.571C12.23 1 13 1.75 13 2.667v16.666zM5.636 5H8.91" stroke="#fff" stroke-width="2" stroke-miterlimit="10" stroke-linecap="round" stroke-linejoin="round"/><path d="M7 18.09A.545.545 0 107 17a.545.545 0 000 1.09z" stroke="#fff" stroke-width="2" stroke-miterlimit="10" stroke-linecap="round" stroke-linejoin="round"/></symbol><symbol fill="none" viewBox="0 0 36 34" id="pipe1" xmlns="http://www.w3.org/2000/svg"><path d="M34.259 29.135c0 2.066-7.445 3.74-16.63 3.74C8.446 32.874 1 31.2 1 29.134" stroke="#37455C" stroke-width="2" stroke-miterlimit="10" stroke-linecap="round" stroke-linejoin="round"/><path d="M34.259 1.374C34.259-.693 1 6.39 1 8.457v20.678M34.259 1.373v27.762M1 8.456c0 4.513 33.259-.593 33.259-7.083M5.581 26.454v-4.2M11.606 22.68v-4.2M11.606 27.578v-1.24M23.601 27.578v-1.24M23.601 22.68v-4.2M29.574 26.454v-4.2M17.63 26.454v-4.2" stroke="#37455C" stroke-width="2" stroke-miterlimit="10" stroke-linecap="round" stroke-linejoin="round"/></symbol><symbol fill="none" viewBox="0 0 36 49" id="pipe2" xmlns="http://www.w3.org/2000/svg"><path d="M35 29.135c0 2.066-7.445 3.74-16.63 3.74-9.184 0-16.629-1.674-16.629-3.74" stroke="#37455C" stroke-width="2" stroke-miterlimit="10" stroke-linecap="round" stroke-linejoin="round"/><path d="M35 1.374C35-.693 1.741 6.39 1.741 8.457v20.678M35 1.373v27.762M1.741 8.456C1.741 12.97 35 7.863 35 1.373M31.808 44.09c0 1.669-6.016 3.022-13.437 3.022-7.421 0-13.437-1.353-13.437-3.022M4.934 31.338V44.09M31.808 31.332V44.09M8.636 42.023V38.63M13.503 38.972v-3.394M13.503 42.93v-1.002M23.196 42.93v-1.002M23.196 38.972v-3.394M28.02 42.023V38.63M18.37 42.023V38.63" stroke="#37455C" stroke-width="2" stroke-miterlimit="10" stroke-linecap="round" stroke-linejoin="round"/></symbol><symbol fill="none" viewBox="0 0 24 28" id="placemark" xmlns="http://www.w3.org/2000/svg"><path d="M15.3 17.85c4.415.572 7.7 2.447 7.7 4.4 0 2.429-4.925 4.4-11 4.4-6.077 0-11-1.971-11-4.4 0-1.953 3.283-3.828 7.7-4.4M11.998 1.35a4.4 4.4 0 10.002 8.8 4.4 4.4 0 10-.002-8.8zM12 22.25v-12.1" stroke="#fff" stroke-width="2" stroke-miterlimit="10" stroke-linecap="round" stroke-linejoin="round"/></symbol><symbol fill="none" viewBox="0 0 28 28" id="rouble" xmlns="http://www.w3.org/2000/svg"><path d="M27 14c0-7.18-5.822-13-13-13C6.82 1 1 6.82 1 14s5.82 13 13 13c7.178 0 13-5.82 13-13z" stroke="#fff" stroke-width="2" stroke-miterlimit="10" stroke-linecap="round" stroke-linejoin="round"/><path d="M10.75 20.933V8.222h4.55a3.178 3.178 0 010 6.356H7.933M7.933 18.333H14" stroke="#fff" stroke-width="2" stroke-miterlimit="10" stroke-linecap="round" stroke-linejoin="round"/></symbol><symbol fill="none" viewBox="0 0 48 32" id="rouble_triple" xmlns="http://www.w3.org/2000/svg"><path d="M31 16c0-8.284-6.718-15-15.001-15C7.715 1 1 7.716 1 16c0 8.285 6.715 15 14.999 15C24.282 31 31 24.285 31 16z" stroke="#005AFF" stroke-width="2" stroke-miterlimit="10" stroke-linecap="round" stroke-linejoin="round"/><path d="M28.004 30.462a14.99 14.99 0 003.995.538C40.282 31 47 24.285 47 16c0-8.284-6.718-15-15.001-15-1.384 0-2.727.188-4 .539" stroke="#005AFF" stroke-width="2" stroke-miterlimit="10" stroke-linecap="round" stroke-linejoin="round"/><path d="M20.004 30.462a14.99 14.99 0 003.995.538C32.282 31 39 24.285 39 16c0-8.284-6.718-15-15.001-15-1.384 0-2.727.188-4 .539" stroke="#005AFF" stroke-width="2" stroke-miterlimit="10" stroke-linecap="round" stroke-linejoin="round"/><path d="M12.25 24V9.333h5.25a3.667 3.667 0 010 7.334H9M9 21h7" stroke="#005AFF" stroke-width="2" stroke-miterlimit="10" stroke-linecap="round" stroke-linejoin="round"/></symbol><symbol fill="none" viewBox="0 0 14 43" id="ruler" xmlns="http://www.w3.org/2000/svg"><path d="M12.56 1H1v40.542h11.56V1zM9.612 7.111l2.95.001M7.347 12.776h5.215M9.612 18.44h2.95M7.347 24.102h5.215M9.612 29.766h2.948M7.347 35.43h5.215" stroke="#37455C" stroke-width="2" stroke-miterlimit="10" stroke-linecap="round" stroke-linejoin="round"/></symbol><symbol fill="none" viewBox="0 0 30 40" id="safehouse" xmlns="http://www.w3.org/2000/svg"><path d="M8.233 15.522v9.097c0 .345.239.627.53.627h11.662c.292 0 .53-.282.53-.627v-9.101" stroke="#37455C" stroke-width="2" stroke-miterlimit="10" stroke-linecap="round" stroke-linejoin="round"/><path d="M5.988 17.299l8.606-7.11L23.2 17.3" stroke="#37455C" stroke-width="2" stroke-miterlimit="10" stroke-linecap="round" stroke-linejoin="round"/><path d="M14.594 1C10.442 3.768 5.159 6.174 1 6.174V24.13c0 6.392 13.594 14.203 13.594 14.203M14.594 1c4.152 2.768 9.435 5.174 13.594 5.174V24.13c0 6.392-13.594 14.203-13.594 14.203" stroke="#37455C" stroke-width="2" stroke-miterlimit="10" stroke-linecap="round" stroke-linejoin="round"/></symbol><symbol fill="none" viewBox="0 0 34 33" id="sleep" xmlns="http://www.w3.org/2000/svg"><path d="M26.262 22.779c-8.858 0-16.039-7.181-16.039-16.04 0-2.026.391-3.956 1.077-5.739C5.28 3.31 1 9.129 1 15.96 1 24.82 8.18 32 17.04 32c6.831 0 12.65-4.28 14.963-10.3a15.93 15.93 0 01-5.74 1.079zM22.992 4.38h8.482l-8.482 7.397h8.482" stroke="#37455C" stroke-width="2" stroke-miterlimit="10" stroke-linecap="round" stroke-linejoin="round"/></symbol><symbol fill="none" viewBox="0 0 37 35" id="speedometer" xmlns="http://www.w3.org/2000/svg"><path d="M31.708 29.466a17.406 17.406 0 002.306-3.594 17.278 17.278 0 001.71-7.51c0-2.013-.36-3.937-.989-5.736C32.365 5.86 25.939 1 18.363 1 10.774 1 4.34 5.876 1.978 12.66A17.295 17.295 0 001 18.364c0 2.675.61 5.207 1.69 7.47a17.46 17.46 0 002.327 3.635" stroke="#fff" stroke-width="2" stroke-linecap="round" stroke-linejoin="round"/><path d="M25.027 31.967c0 .825-.668 1.493-1.493 1.493H13.192a1.493 1.493 0 01-1.493-1.493V29.03c0-.824.668-1.493 1.493-1.493h10.342c.825 0 1.493.669 1.493 1.493v2.938zM35.725 18.978H31.2M5.711 18.978H1M7.397 24.58l-4.071 2.35M26.993 3.3l-2.236 3.872M18.363 1v4.505M9.733 3.3l2.281 3.952M3.389 9.603l4.008 2.314M29.469 24.66l3.984 2.285M20.968 20.09a2.834 2.834 0 11-5.212-2.225 2.834 2.834 0 015.212 2.225zM20.742 17.44l10.027-6.473" stroke="#fff" stroke-width="2" stroke-miterlimit="10" stroke-linecap="round" stroke-linejoin="round"/></symbol><symbol fill="none" viewBox="0 0 27 36" id="tablet" xmlns="http://www.w3.org/2000/svg"><path d="M17.249 4.17H15.58v-.91c0-1.063-.901-1.923-2.012-1.923h-1.013c-1.112 0-2.012.861-2.012 1.923v.91H8.807c-2.656 0-2.696 3.987 0 3.987h8.44c2.69 0 2.683-3.986.002-3.986z" stroke="#37455C" stroke-width="2" stroke-linecap="round" stroke-linejoin="round"/><path d="M22.422 5.815h2.649v28.67H1V5.815h2.676" stroke="#37455C" stroke-width="2" stroke-linecap="round" stroke-linejoin="round"/><path d="M6.724 23.11l3.661 4.037 9.456-11.449" stroke="#37455C" stroke-width="2" stroke-linecap="round" stroke-linejoin="round"/></symbol><symbol fill="none" viewBox="0 0 66 35" id="truck" xmlns="http://www.w3.org/2000/svg"><path d="M10.983 33.65a5.272 5.272 0 100-10.545 5.272 5.272 0 000 10.544zM39.802 33.65a5.272 5.272 0 100-10.545 5.272 5.272 0 000 10.544z" stroke="#37455C" stroke-width="2" stroke-miterlimit="10" stroke-linecap="round" stroke-linejoin="round"/><path d="M50.345 33.65a5.272 5.272 0 100-10.545 5.272 5.272 0 000 10.544zM16.255 27.206h18.407" stroke="#37455C" stroke-width="2" stroke-miterlimit="10" stroke-linecap="round" stroke-linejoin="round"/><path d="M55.617 27.206l6.91-3.012v-3.915H13.72V8.122H4.94L1.18 16.807v9.914h4.724M63.175 14.893L12.063 5.272a1.324 1.324 0 01-1.056-1.548l.253-1.348a1.324 1.324 0 011.548-1.056l51.112 9.621c.72.136 1.192.828 1.057 1.548l-.253 1.348a1.328 1.328 0 01-1.549 1.056zM33.939 9.389v10.89" stroke="#37455C" stroke-width="2" stroke-miterlimit="10" stroke-linecap="round" stroke-linejoin="round"/><path d="M13.72 12.295h3.342l2.788 7.984M33.939 13.334h4.875l2.182 6.945M62.527 20.28v-5.51M56.739 20.279v-6.651M53.517 20.279v-3.993H44.06v3.993M19.85 20.28v6.926M28.683 20.28v6.926" stroke="#37455C" stroke-width="2" stroke-miterlimit="10" stroke-linecap="round" stroke-linejoin="round"/></symbol><symbol fill="none" viewBox="0 0 40 26" id="truck2" xmlns="http://www.w3.org/2000/svg"><path d="M5.222 6.63h7.037M3.111 15.074h4.222M1 10.852h8.444M6.63 3.111v-1C6.63 1.501 7.122 1 7.725 1h17.514c.602 0 1.094.5 1.094 1.111v18.185c0 .61-.492 1.111-1.095 1.111h-7.35M10.852 21.408H7.725a1.107 1.107 0 01-1.095-1.112v-1.703M29.037 21.407H27.39a1.06 1.06 0 01-1.057-1.055v-7.39M39 12.963v7.389a1.06 1.06 0 01-1.056 1.055h-1.759" stroke="#37455C" stroke-width="2" stroke-miterlimit="10" stroke-linecap="round" stroke-linejoin="round"/><path d="M26.333 3.814h9.5L39 12.963M14.37 24.926a3.519 3.519 0 100-7.037 3.519 3.519 0 000 7.037zM32.667 24.926a3.519 3.519 0 100-7.037 3.519 3.519 0 000 7.037z" stroke="#37455C" stroke-width="2" stroke-miterlimit="10" stroke-linecap="round" stroke-linejoin="round"/><path d="M39 12.963h-6.333V3.814" stroke="#37455C" stroke-width="2" stroke-miterlimit="10" stroke-linecap="round" stroke-linejoin="round"/></symbol><symbol fill="none" viewBox="0 0 25 40" id="warning" xmlns="http://www.w3.org/2000/svg"><path d="M8.833 38.865l14.975-21.018c.411-.595.14-.8-.605-.8h-7.067c-.744 0-1.255-.71-1.133-1.416l2.429-14.4" stroke="#FF003D" stroke-width="2" stroke-miterlimit="10" stroke-linecap="round" stroke-linejoin="round"/><path d="M17.432 1.152L1.286 21.694c-.453.57-.213 1.093.532 1.093h7.82c.745 0 1.309.382 1.25 1.097L8.832 38.945" stroke="#FF003D" stroke-width="2" stroke-miterlimit="10" stroke-linecap="round" stroke-linejoin="round"/></symbol><symbol fill="none" viewBox="0 0 26 38" id="waterdrop" xmlns="http://www.w3.org/2000/svg"><path d="M13.167 32.555a8.312 8.312 0 01-8.313-8.313M13.167 36.075c-6.535 0-11.833-5.298-11.833-11.833S7.25 8.684 13.167 1.925M13.167 36.075C19.702 36.075 25 30.777 25 24.242S19.083 8.684 13.167 1.925" stroke="#fff" stroke-width="2" stroke-miterlimit="10" stroke-linecap="round" stroke-linejoin="round"/></symbol><symbol fill="none" viewBox="0 0 36 27" id="waterfilter" xmlns="http://www.w3.org/2000/svg"><path d="M11.453 9.395h-7.16V6.67c0-.643.521-1.165 1.164-1.165h4.83c.644 0 1.165.522 1.165 1.165v2.724h.001zM8.158 26h-.572A2.391 2.391 0 015.2 23.76L4.292 9.396h7.161l-.908 14.364A2.392 2.392 0 018.158 26zM21.237 9.395h-7.16V6.67c0-.643.521-1.165 1.164-1.165h4.83c.644 0 1.165.522 1.165 1.165v2.724h.001zM17.943 26h-.572a2.392 2.392 0 01-2.387-2.24l-.908-14.364h7.161l-.908 14.364A2.392 2.392 0 0117.943 26zM31.021 9.395h-7.16V6.67c0-.643.521-1.165 1.164-1.165h4.83c.644 0 1.165.522 1.165 1.165v2.724h.001zM27.727 26h-.572a2.391 2.391 0 01-2.387-2.24L23.86 9.396h7.161l-.908 14.364A2.392 2.392 0 0127.727 26z" stroke="#005AFF" stroke-width="2" stroke-miterlimit="10" stroke-linecap="round" stroke-linejoin="round"/><path d="M33.148 9.395H2.165c-.704 0-1.247-.62-1.155-1.318l.802-6.065A1.165 1.165 0 012.967 1h29.378c.585 0 1.079.433 1.155 1.012l.803 6.065a1.165 1.165 0 01-1.155 1.318zM7.872 20v2.593M17.656 19.981v2.593M27.44 19.981v2.593" stroke="#005AFF" stroke-width="2" stroke-miterlimit="10" stroke-linecap="round" stroke-linejoin="round"/></symbol><symbol fill="none" viewBox="0 0 34 30" id="waterhouse" xmlns="http://www.w3.org/2000/svg"><path d="M8.37 9.671v14.792c0 .561.387 1.02.862 1.02h18.962c.474 0 .862-.459.862-1.02V9.664" stroke="#005AFF" stroke-width="2" stroke-miterlimit="10" stroke-linecap="round" stroke-linejoin="round"/><path d="M4.719 12.56L18.713 1l13.993 11.56M8.37 17.573H5.184v7.91H1M1 28.928h17.713v-3.445" stroke="#005AFF" stroke-width="2" stroke-miterlimit="10" stroke-linecap="round" stroke-linejoin="round"/></symbol><symbol fill="none" viewBox="0 0 12 9" id="yes" xmlns="http://www.w3.org/2000/svg"><path d="M1 4.5L5.4 8 11 1" stroke="#fff" stroke-width="2" stroke-linecap="round" stroke-linejoin="round"/></symbol><symbol fill="none" viewBox="0 0 32 30" id="yesstar" xmlns="http://www.w3.org/2000/svg"><path d="M16 1l5.009 8.713L31 11.695l-6.896 7.367L25.271 29 16 24.84 6.73 29l1.166-9.938L1 11.695l9.992-1.982L16 1z" stroke="#fff" stroke-width="2" stroke-miterlimit="10" stroke-linecap="round" stroke-linejoin="round"/><path d="M13 16l2.64 2L19 14" stroke="#fff" stroke-width="2" stroke-linecap="round" stroke-linejoin="round"/></symbol></svg>