<?xml version="1.0" encoding="utf-8"?><svg xmlns="http://www.w3.org/2000/svg" xmlns:xlink="http://www.w3.org/1999/xlink"><symbol fill="none" viewBox="0 0 25 14" id="arrow" xmlns="http://www.w3.org/2000/svg"><g opacity=".5"  stroke-width="2" stroke-linecap="round" stroke-linejoin="round"><path d="M17.606 1l5.504 5.504-5.504 5.504M23 6.504H1"/></g></symbol><symbol fill="none" viewBox="0 0 36 36" id="bank" xmlns="http://www.w3.org/2000/svg"><path d="M18 29.865v-13.53M11.348 29.865v-13.53M4.696 29.865v-13.53M24.652 29.865v-13.53M31.304 29.865v-13.53M35 15.783H1L18.024 1 35 15.783zM35 30.565H1V35h34v-4.435z"  stroke-width="2" stroke-miterlimit="10" stroke-linecap="round" stroke-linejoin="round"/></symbol><symbol fill="none" viewBox="0 0 35 25" id="bankcard" xmlns="http://www.w3.org/2000/svg"><path d="M5.906 20.356h4.689M5.906 15.87h8.815M33.13 21.862a1.84 1.84 0 01-1.836 1.846H2.837A1.842 1.842 0 011 21.862V3.212c0-1.019.822-1.846 1.837-1.846h28.457c1.014 0 1.836.827 1.836 1.847v18.649z"  stroke-width="2" stroke-linecap="round" stroke-linejoin="round"/><path d="M33.13 5.818H1v5.565h32.13V5.818z"  stroke-width="2" stroke-miterlimit="10" stroke-linecap="round" stroke-linejoin="round"/><path d="M26.039 15.852c-.694 0-1.306.32-1.719.813a2.238 2.238 0 00-1.718-.813 2.252 2.252 0 000 4.503c.693 0 1.305-.319 1.718-.812a2.238 2.238 0 001.719.812 2.252 2.252 0 000-4.503z"  stroke-width="2" stroke-linecap="round" stroke-linejoin="round"/></symbol><symbol fill="none" viewBox="0 0 32 32" id="box" xmlns="http://www.w3.org/2000/svg"><path d="M24.478 7.521V31H1V7.52"  stroke-width="2" stroke-miterlimit="10" stroke-linecap="round" stroke-linejoin="round"/><path d="M1 7.522L7 1h24v24.157L24.478 31M24.478 7.522L31 1M12.74 7.522L19.26 1M8.826 13.392h7.826M1.326 7.521h23.152"  stroke-width="2" stroke-miterlimit="10" stroke-linecap="round" stroke-linejoin="round"/></symbol><symbol fill="none" viewBox="0 0 40 31" id="cart" xmlns="http://www.w3.org/2000/svg"><path d="M10.823 8.966s.79-4.474 2.763-4.545c1.974-.07 4.428 2.345 5.28.995.854-1.35 2.4-1.918 5.547-2.273 3.146-.355 1.813-2.77 3.787-1.988 1.973.782 5.652 6.534 5.812 7.813M31.598 26.02c0 1.719 1.545 3.11 3.451 3.11 1.906 0 3.451-1.392 3.451-3.11 0-1.716-1.545-3.109-3.451-3.109-1.907 0-3.45 1.393-3.45 3.11z"  stroke-width="2" stroke-miterlimit="10" stroke-linecap="round" stroke-linejoin="round"/><path d="M1 8.966h3.865l6.983 20.165h2.36l3.357-6.78"  stroke-width="2" stroke-linecap="round" stroke-linejoin="round"/><path d="M8.023 18.085s20.898 14.662 29.27-6.635H5.727"  stroke-width="2" stroke-miterlimit="10" stroke-linecap="round" stroke-linejoin="round"/></symbol><symbol fill="none" viewBox="0 0 47 45" id="category6" xmlns="http://www.w3.org/2000/svg"><path d="M38.8 13.44L23.28 4.48 7.76 13.44v17.922l15.52 8.96 15.52-8.96V13.44z"  stroke-width="2" stroke-miterlimit="10" stroke-linecap="round" stroke-linejoin="round"/><path d="M33.867 4.065H12.694L2.107 22.4l10.587 18.337h21.173l10.586-18.337L33.867 4.065z"  stroke-width="2" stroke-miterlimit="10" stroke-linecap="round" stroke-linejoin="round"/><path d="M12.453 14.86l7.001 16 7-16M30.453 14.86v16"  stroke-width="2" stroke-miterlimit="10" stroke-linecap="round" stroke-linejoin="round"/></symbol><symbol fill="none" viewBox="0 0 35 34" id="deep" xmlns="http://www.w3.org/2000/svg"><path d="M17.25 32.333V1M22.295 27.18l-5.045 5.153-5.045-5.154M1 1h32.5M1 32.333h4.919M1 16.667h4.919M1 8.834h3.002M1 24.23h3.002M33.5 32.333H28.58M33.5 16.667H28.58M33.5 8.834h-3.003M33.5 24.23h-3.003"  stroke-width="2" stroke-miterlimit="10" stroke-linecap="round" stroke-linejoin="round"/></symbol><symbol fill="none" viewBox="0 0 14 20" id="doublechevron" xmlns="http://www.w3.org/2000/svg"><path d="M1 6.504L6.504 1l5.504 5.504"  stroke-width="2" stroke-linecap="round" stroke-linejoin="round"/><path opacity=".3" d="M1 13.504L6.504 8l5.504 5.504"  stroke-width="2" stroke-linecap="round" stroke-linejoin="round"/></symbol><symbol fill="none" viewBox="0 0 30 43" id="drill" xmlns="http://www.w3.org/2000/svg"><path d="M6.643 41.779a5.574 5.574 0 100-11.148 5.574 5.574 0 000 11.148z"  stroke-width="2" stroke-miterlimit="10" stroke-linecap="round" stroke-linejoin="round"/><path d="M6.643 38.04a1.834 1.834 0 100-3.668 1.834 1.834 0 000 3.668z"  stroke-width="2" stroke-miterlimit="10" stroke-linecap="round" stroke-linejoin="round"/><path d="M12.217 34.967l5.438-3.186v-4.138H1V36.5M21.118 40.38V2.4a1.4 1.4 0 011.4-1.4h1.45a1.4 1.4 0 011.4 1.4v39.38h-2.85a1.4 1.4 0 01-1.4-1.4zM17.655 31.781h3.463M13.403 27.642l7.715-5.42M10 27.5V23H1v4.5M1 22.934L4.66 18h3.657v4.934M25.37 24.127l3.588 5.786v11.866H25.37"  stroke-width="2" stroke-miterlimit="10" stroke-linecap="round" stroke-linejoin="round"/></symbol><symbol fill="none" viewBox="0 0 38 44" id="employer" xmlns="http://www.w3.org/2000/svg"><path d="M4.639 21.788c0 1.595.27 2.853.757 4.283a2.418 2.418 0 00.986 4.626l.042-.002c.5 6.372 7.743 11.751 12.327 11.751 4.704 0 11.826-5.378 12.326-11.75h.042a2.419 2.419 0 00.986-4.625c.49-1.43.758-2.688.758-4.284"  stroke-width="2" stroke-linecap="round" stroke-linejoin="round"/><path d="M9.074 22.987l-.348 4.022s-1.32-1.823-3.33-.939M28.468 22.917l.354 4.092s1.32-1.823 3.33-.939"  stroke-width="2" stroke-miterlimit="10" stroke-linecap="round" stroke-linejoin="round"/><path d="M13.722 4.495c-5.367 1.5-8.672 5.79-9.757 11.13A2.974 2.974 0 001 18.591c0 1.63 1.259 2.418 2.965 2.965 15.243 5.37 29.57 0 29.57 0 1.63-.492 2.965-1.334 2.965-2.965a2.974 2.974 0 00-2.965-2.966c-1.083-5.34-4.333-9.63-9.699-11.13"  stroke-width="2" stroke-miterlimit="10" stroke-linecap="round" stroke-linejoin="round"/><path d="M20.405 15.163h-3.25a3.432 3.432 0 01-3.433-3.433V4.433A3.432 3.432 0 0117.154 1h3.251a3.432 3.432 0 013.432 3.433v7.297a3.433 3.433 0 01-3.432 3.433z"  stroke-width="2" stroke-miterlimit="10" stroke-linecap="round" stroke-linejoin="round"/><path d="M16.965 35.537h3.658"  stroke-width="2" stroke-miterlimit="3.864" stroke-linecap="round" stroke-linejoin="round"/><path d="M21.406 23.996s-1.592.416-1.592 2.521c0 2.65 2.953 5.04 5.264 5.04 2.31 0 3.698-1.403 3.543-4.469-.154-3.066-2.619-3.092-2.619-3.092h-14.56s-2.465.026-2.62 3.092c-.154 3.066 1.234 4.47 3.544 4.47 2.312 0 5.264-2.392 5.264-5.04 0-2.105-1.592-2.522-1.592-2.522"  stroke-width="2" stroke-miterlimit="10" stroke-linecap="round" stroke-linejoin="round"/></symbol><symbol fill="none" viewBox="0 0 34 32" id="handshake" xmlns="http://www.w3.org/2000/svg"><path d="M20.091 20.091l4.205 5.569s1.583 2.663 3.85 1.675c1.316-.574 1.519-1.79 1.519-2.472 0-1.085-.71-2.045-.71-2.045L19.41 9.182s-1.387 1.275-3.665 2.358c-4.9 2.33-6.563.37-6.563-1.676 0-.975 2.314-1.547 5.682-4.915C17.984 1.83 18.369 1 20.09 1h2.015c3.424 0 4.163.648 6.098 1.938 3.12 2.08 4.16 2.835 4.16 2.835v15.682h-4.09"  stroke-width="2" stroke-miterlimit="10" stroke-linecap="round" stroke-linejoin="round"/><path d="M24.779 26.398c.053.553.34 1.96-.959 2.813-2.186 1.434-3.729-.938-3.729-.938l-4.773-6.818M19.814 28.156c-.132.5-.355 1.322-1.278 1.779-2.067 1.023-3.217-.298-3.217-.298l-4.773-6.819"  stroke-width="2" stroke-miterlimit="10" stroke-linecap="round" stroke-linejoin="round"/><path d="M15.319 3.727c-6.24 0-7.5 2.045-10.228 2.045h-4.09v15.682h1.363c1.82 0 3.569 2.889 3.569 2.889l3.964 5.633s1.149 1.82 3.315.607c.806-.451 1.21-.984 1.38-1.493"  stroke-width="2" stroke-miterlimit="10" stroke-linecap="round" stroke-linejoin="round"/></symbol><symbol fill="none" viewBox="0 0 21 21" id="headphone" xmlns="http://www.w3.org/2000/svg"><path d="M4.455 15.682a.866.866 0 01-.864.864H1.864A.866.866 0 011 15.681v-3.455c0-.475.389-.863.864-.863H3.59c.475 0 .864.388.864.863v3.455zM1 12.227V10.5M1 10.5C1 5.258 5.258 1 10.5 1c5.25 0 9.5 4.258 9.5 9.5M16.546 15.682c0 .475.388.864.863.864h1.727a.866.866 0 00.864-.864v-3.455a.866.866 0 00-.864-.863H17.41a.866.866 0 00-.863.863v3.455zM20 12.227V10.5M11.364 19.136H9.636V20h1.728v-.864z"  stroke-width="2" stroke-miterlimit="10" stroke-linecap="round" stroke-linejoin="round"/><path d="M20 11.14v6.27L13.954 20H11.13"  stroke-width="2" stroke-miterlimit="10" stroke-linecap="round" stroke-linejoin="round"/></symbol><symbol fill="none" viewBox="0 0 39 46" id="island" xmlns="http://www.w3.org/2000/svg"><path d="M36.128 1.505a1 1 0 00-1.36.312l-1.746 2.7a1 1 0 00-.16.544v3.905a1 1 0 01-.102.438l-5.632 11.538a1 1 0 01-.3.361l-7.612 5.71a1 1 0 00-.303 1.23l.649 1.36a1 1 0 01-.141 1.078l-2.24 2.634a1 1 0 01-.467.308l-3.524 1.085a1 1 0 00-.582.473l-2.371 4.304a1 1 0 01-.662.494l-7.282 1.596a1 1 0 00-.667 1.45l.355.662a1 1 0 00.73.515l4.923.755a1 1 0 00.539-.066l6.101-2.56a1 1 0 00.451-.376l1.609-2.468a1 1 0 00.153-.41l.263-1.91a1 1 0 01.99-.863h1.46a1 1 0 00.597-.198l4.787-3.56c.043-.033.084-.069.121-.107l4.865-5.026c.062-.064.132-.12.208-.165l1.733-1.029a1 1 0 00.376-1.323l-.152-.29a1 1 0 01.383-1.327l1.145-.668a.999.999 0 00.41-.458l1.526-3.437a1 1 0 00.085-.46l-.245-4.498a1 1 0 01.051-.375l1.445-4.272c.027-.081.044-.166.05-.251l.266-3.825a.999.999 0 01.11-.392l.608-1.17a1 1 0 00-.368-1.315l-1.073-.653z"  stroke-width="2" stroke-miterlimit="10" stroke-linecap="round" stroke-linejoin="round"/></symbol><symbol fill="none" viewBox="0 0 143 57" id="logo" xmlns="http://www.w3.org/2000/svg"><path d="M18.064 22.58a1 1 0 001 1h8.117a1 1 0 011 1v2.284a.945.945 0 01-.46.824c-1.955 1.133-4.179 1.525-6.837 1.525-7.137 0-11.62-3.818-11.62-10.608.007-6.784 4.483-10.609 11.62-10.609 2.634 0 4.842.38 6.784 1.493.321.185.716.204 1.04.026l6.425-3.523c.592-.325.697-1.132.168-1.553C31.937 1.762 26.882 0 20.427 0 8.01 0 .014 7.185 0 18.598v.027c.007 11.413 8.01 18.598 20.427 18.598 6.923 0 12.24-2.03 15.588-5.044a.964.964 0 00.314-.72V17.09a1 1 0 00-1-1H19.064a1 1 0 00-1 1v5.49zM64.712 31.212a1 1 0 00-.913-.592H50.801a1 1 0 00-.913.591l-2.083 4.658a1 1 0 01-.913.592h-7.497a1 1 0 01-.92-1.392L52.907 1.245a1 1 0 01.92-.607h6.953a1 1 0 01.92.607L76.13 35.068a1 1 0 01-.92 1.393h-7.503a1 1 0 01-.913-.592l-2.083-4.657zm-11.371-9.046a1 1 0 00.934 1.358h6.105a1 1 0 00.935-1.354l-3.034-8.012c-.325-.86-1.54-.862-1.869-.004l-3.071 8.012zM100.624 36.462v-.003l-6.303-9.202a.473.473 0 00-.39-.206H89.7a1 1 0 00-1 1v7.41a1 1 0 01-1 1h-6.807a1 1 0 01-1-1V1.686a1 1 0 011-1h13.793c9.916 0 15.244 4.677 15.244 13.186 0 5.196-2.017 8.791-5.662 10.911-.545.317-.732 1.038-.36 1.546l6.263 8.548a1 1 0 01-.807 1.59h-8.734c-.003 0-.006-.002-.006-.005zM88.7 19.7h5.134c4.878 0 6.846-2.418 6.846-5.335 0-3.977-1.864-6.042-6.59-6.042h-4.384a1 1 0 00-1 1v10.37a.007.007 0 01-.007.007zM141.802.63h-28.745a1 1 0 00-1 1v6.253a1 1 0 001 1h28.745a1 1 0 001-1V1.631a1 1 0 00-1-1z" /><path d="M132.003 33.235a1 1 0 001.548-.837v-3.22a.999.999 0 00-.451-.836l-6.241-4.092a1 1 0 01-.452-.836v-2.799a1 1 0 011.549-.836l4.047 2.654a1 1 0 001.548-.836V8.857a1 1 0 00-1-1h-10.146a1 1 0 00-1 1v16.885c0 .337.169.651.451.836l10.147 6.657zM122.953 32.973a1 1 0 00-1.548.836v3.387c0 .337.169.651.451.836l6.317 4.147a1 1 0 01.452.836v2.792a1 1 0 01-1.548.837l-4.124-2.703a1 1 0 00-1.548.836v5.502a1 1 0 00.318.732l5.07 4.728a1 1 0 001.364 0l5.076-4.728a1 1 0 00.318-.732v-9.814a.999.999 0 00-.451-.836l-10.147-6.656z" /></symbol><symbol fill="none" viewBox="0 0 14 22" id="phone" xmlns="http://www.w3.org/2000/svg"><path d="M13 19.333C13 20.25 12.229 21 11.286 21H2.715C1.772 21 1 20.25 1 19.333V2.667C1 1.75 1.772 1 2.715 1h8.571C12.23 1 13 1.75 13 2.667v16.666zM5.636 5H8.91"  stroke-width="2" stroke-miterlimit="10" stroke-linecap="round" stroke-linejoin="round"/><path d="M7 18.09A.545.545 0 107 17a.545.545 0 000 1.09z"  stroke-width="2" stroke-miterlimit="10" stroke-linecap="round" stroke-linejoin="round"/></symbol><symbol fill="none" viewBox="0 0 36 34" id="pipe1" xmlns="http://www.w3.org/2000/svg"><path d="M34.259 29.135c0 2.066-7.445 3.74-16.63 3.74C8.446 32.874 1 31.2 1 29.134"  stroke-width="2" stroke-miterlimit="10" stroke-linecap="round" stroke-linejoin="round"/><path d="M34.259 1.374C34.259-.693 1 6.39 1 8.457v20.678M34.259 1.373v27.762M1 8.456c0 4.513 33.259-.593 33.259-7.083M5.581 26.454v-4.2M11.606 22.68v-4.2M11.606 27.578v-1.24M23.601 27.578v-1.24M23.601 22.68v-4.2M29.574 26.454v-4.2M17.63 26.454v-4.2"  stroke-width="2" stroke-miterlimit="10" stroke-linecap="round" stroke-linejoin="round"/></symbol><symbol fill="none" viewBox="0 0 36 49" id="pipe2" xmlns="http://www.w3.org/2000/svg"><path d="M35 29.135c0 2.066-7.445 3.74-16.63 3.74-9.184 0-16.629-1.674-16.629-3.74"  stroke-width="2" stroke-miterlimit="10" stroke-linecap="round" stroke-linejoin="round"/><path d="M35 1.374C35-.693 1.741 6.39 1.741 8.457v20.678M35 1.373v27.762M1.741 8.456C1.741 12.97 35 7.863 35 1.373M31.808 44.09c0 1.669-6.016 3.022-13.437 3.022-7.421 0-13.437-1.353-13.437-3.022M4.934 31.338V44.09M31.808 31.332V44.09M8.636 42.023V38.63M13.503 38.972v-3.394M13.503 42.93v-1.002M23.196 42.93v-1.002M23.196 38.972v-3.394M28.02 42.023V38.63M18.37 42.023V38.63"  stroke-width="2" stroke-miterlimit="10" stroke-linecap="round" stroke-linejoin="round"/></symbol><symbol fill="none" viewBox="0 0 24 28" id="placemark" xmlns="http://www.w3.org/2000/svg"><path d="M15.3 17.85c4.415.572 7.7 2.447 7.7 4.4 0 2.429-4.925 4.4-11 4.4-6.077 0-11-1.971-11-4.4 0-1.953 3.283-3.828 7.7-4.4M11.998 1.35a4.4 4.4 0 10.002 8.8 4.4 4.4 0 10-.002-8.8zM12 22.25v-12.1"  stroke-width="2" stroke-miterlimit="10" stroke-linecap="round" stroke-linejoin="round"/></symbol><symbol fill="none" viewBox="0 0 28 28" id="rouble" xmlns="http://www.w3.org/2000/svg"><path d="M27 14c0-7.18-5.822-13-13-13C6.82 1 1 6.82 1 14s5.82 13 13 13c7.178 0 13-5.82 13-13z"  stroke-width="2" stroke-miterlimit="10" stroke-linecap="round" stroke-linejoin="round"/><path d="M10.75 20.933V8.222h4.55a3.178 3.178 0 010 6.356H7.933M7.933 18.333H14"  stroke-width="2" stroke-miterlimit="10" stroke-linecap="round" stroke-linejoin="round"/></symbol><symbol fill="none" viewBox="0 0 48 32" id="rouble_triple" xmlns="http://www.w3.org/2000/svg"><path d="M31 16c0-8.284-6.718-15-15.001-15C7.715 1 1 7.716 1 16c0 8.285 6.715 15 14.999 15C24.282 31 31 24.285 31 16z"  stroke-width="2" stroke-miterlimit="10" stroke-linecap="round" stroke-linejoin="round"/><path d="M28.004 30.462a14.99 14.99 0 003.995.538C40.282 31 47 24.285 47 16c0-8.284-6.718-15-15.001-15-1.384 0-2.727.188-4 .539"  stroke-width="2" stroke-miterlimit="10" stroke-linecap="round" stroke-linejoin="round"/><path d="M20.004 30.462a14.99 14.99 0 003.995.538C32.282 31 39 24.285 39 16c0-8.284-6.718-15-15.001-15-1.384 0-2.727.188-4 .539"  stroke-width="2" stroke-miterlimit="10" stroke-linecap="round" stroke-linejoin="round"/><path d="M12.25 24V9.333h5.25a3.667 3.667 0 010 7.334H9M9 21h7"  stroke-width="2" stroke-miterlimit="10" stroke-linecap="round" stroke-linejoin="round"/></symbol><symbol fill="none" viewBox="0 0 14 43" id="ruler" xmlns="http://www.w3.org/2000/svg"><path d="M12.56 1H1v40.542h11.56V1zM9.612 7.111l2.95.001M7.347 12.776h5.215M9.612 18.44h2.95M7.347 24.102h5.215M9.612 29.766h2.948M7.347 35.43h5.215"  stroke-width="2" stroke-miterlimit="10" stroke-linecap="round" stroke-linejoin="round"/></symbol><symbol fill="none" viewBox="0 0 30 40" id="safehouse" xmlns="http://www.w3.org/2000/svg"><path d="M8.233 15.522v9.097c0 .345.239.627.53.627h11.662c.292 0 .53-.282.53-.627v-9.101"  stroke-width="2" stroke-miterlimit="10" stroke-linecap="round" stroke-linejoin="round"/><path d="M5.988 17.299l8.606-7.11L23.2 17.3"  stroke-width="2" stroke-miterlimit="10" stroke-linecap="round" stroke-linejoin="round"/><path d="M14.594 1C10.442 3.768 5.159 6.174 1 6.174V24.13c0 6.392 13.594 14.203 13.594 14.203M14.594 1c4.152 2.768 9.435 5.174 13.594 5.174V24.13c0 6.392-13.594 14.203-13.594 14.203"  stroke-width="2" stroke-miterlimit="10" stroke-linecap="round" stroke-linejoin="round"/></symbol><symbol fill="none" viewBox="0 0 34 33" id="sleep" xmlns="http://www.w3.org/2000/svg"><path d="M26.262 22.779c-8.858 0-16.039-7.181-16.039-16.04 0-2.026.391-3.956 1.077-5.739C5.28 3.31 1 9.129 1 15.96 1 24.82 8.18 32 17.04 32c6.831 0 12.65-4.28 14.963-10.3a15.93 15.93 0 01-5.74 1.079zM22.992 4.38h8.482l-8.482 7.397h8.482"  stroke-width="2" stroke-miterlimit="10" stroke-linecap="round" stroke-linejoin="round"/></symbol><symbol fill="none" viewBox="0 0 172 21" id="sovcombank" xmlns="http://www.w3.org/2000/svg"><path d="M12.713.22v5.417h-2.131c-2.692 0-4.861 2.137-4.861 4.79 0 2.652 2.169 4.789 4.86 4.789h2.132v5.416c4.86-.921 8.488-5.121 8.488-10.206 0-5.047-3.627-9.247-8.488-10.205z" /><path d="M10.582 16.91C6.955 16.91 4 14 4 10.427c0-3.573 2.954-6.484 6.58-6.484h.412V0h-.411C4.749 0 0 4.679 0 10.426 0 16.211 4.749 20.89 10.582 20.89h.411v-3.978h-.411v-.002zm25.575-2.836a4.8 4.8 0 01-3.028 1.068c-2.655 0-4.786-2.1-4.786-4.716 0-2.615 2.13-4.715 4.786-4.715a4.72 4.72 0 013.14 1.178l1.683-1.657a7.177 7.177 0 00-4.823-1.843c-3.964 0-7.142 3.169-7.142 7.037 0 3.869 3.178 7.074 7.142 7.074 1.832 0 3.477-.663 4.711-1.768l-1.683-1.658zm76.092-10.132l-5.272 6.263-5.31-6.263-.037.074v-.074h-2.132v12.969h2.132V7.405l5.347 6.263 5.272-6.115v9.358h2.094V3.942h-2.094zm-58.443 6.484c0 3.906-3.216 7.037-7.142 7.037-3.963 0-7.141-3.168-7.141-7.037 0-3.868 3.215-7.037 7.141-7.037s7.142 3.169 7.142 7.037zm-2.393 0c0-2.615-2.131-4.715-4.786-4.715s-4.786 2.1-4.786 4.715c0 2.616 2.131 4.716 4.786 4.716s4.786-2.1 4.786-4.716zm45.917 0c0 3.906-3.216 7.037-7.142 7.037-3.964 0-7.142-3.168-7.142-7.037 0-3.868 3.216-7.037 7.142-7.037 3.963 0 7.142 3.169 7.142 7.037zm-2.356 0c0-2.615-2.131-4.715-4.786-4.715s-4.786 2.1-4.786 4.715c0 2.616 2.131 4.716 4.786 4.716 2.617 0 4.786-2.1 4.786-4.716zM83.009 3.942h-2.88l-5.421 5.453h-2.206V3.942h-2.094v12.969h2.094v-5.416h2.168l5.422 5.416h2.842l-6.431-6.448 6.506-6.521z" /><path d="M171.7 3.942h-2.84l-5.46 5.453h-2.206V3.942H159.1v12.97h2.094v-5.417h2.206l5.384 5.416h2.842l-6.394-6.448 6.468-6.52zM140.74 16.91h2.32l-5.797-12.968h-2.393l-5.795 12.97h2.318l1.271-2.8h6.806l1.27 2.8v-.002zm-7.14-4.863l2.467-5.452 2.468 5.452h-4.936.001z" /><path d="M67.716 13.153a3.704 3.704 0 00-1.197-2.727c.71-.7 1.197-1.658 1.197-2.726a3.77 3.77 0 00-3.777-3.758h-7.702v13.005h7.702c2.094-.036 3.777-1.73 3.777-3.794zm-9.348-7.11h5.534c.935 0 1.682.736 1.682 1.657s-.747 1.658-1.682 1.658h-5.534V6.042v.001zm5.534 8.804h-5.534v-3.352h5.571c.935 0 1.683.773 1.683 1.658-.038.92-.785 1.694-1.72 1.694z" /><path d="M154.351 3.98v5.415h-7.665V3.98h-2.131v12.895h2.131v-5.38h7.665v5.38h2.132V3.98h-2.132zm-26.024 9.173c0-2.064-1.72-3.758-3.814-3.758h-5.534V6.042h8.077v-2.1h-10.208v13.005h7.665c2.094-.036 3.814-1.73 3.814-3.794zm-3.814 1.694h-5.534v-3.352h5.534c.935 0 1.683.773 1.683 1.658 0 .92-.748 1.694-1.683 1.694z" /></symbol><symbol fill="none" viewBox="0 0 37 35" id="speedometer" xmlns="http://www.w3.org/2000/svg"><path d="M31.708 29.466a17.406 17.406 0 002.306-3.594 17.278 17.278 0 001.71-7.51c0-2.013-.36-3.937-.989-5.736C32.365 5.86 25.939 1 18.363 1 10.774 1 4.34 5.876 1.978 12.66A17.295 17.295 0 001 18.364c0 2.675.61 5.207 1.69 7.47a17.46 17.46 0 002.327 3.635"  stroke-width="2" stroke-linecap="round" stroke-linejoin="round"/><path d="M25.027 31.967c0 .825-.668 1.493-1.493 1.493H13.192a1.493 1.493 0 01-1.493-1.493V29.03c0-.824.668-1.493 1.493-1.493h10.342c.825 0 1.493.669 1.493 1.493v2.938zM35.725 18.978H31.2M5.711 18.978H1M7.397 24.58l-4.071 2.35M26.993 3.3l-2.236 3.872M18.363 1v4.505M9.733 3.3l2.281 3.952M3.389 9.603l4.008 2.314M29.469 24.66l3.984 2.285M20.968 20.09a2.834 2.834 0 11-5.212-2.225 2.834 2.834 0 015.212 2.225zM20.742 17.44l10.027-6.473"  stroke-width="2" stroke-miterlimit="10" stroke-linecap="round" stroke-linejoin="round"/></symbol><symbol fill="none" viewBox="0 0 27 36" id="tablet" xmlns="http://www.w3.org/2000/svg"><path d="M17.249 4.17H15.58v-.91c0-1.063-.901-1.923-2.012-1.923h-1.013c-1.112 0-2.012.861-2.012 1.923v.91H8.807c-2.656 0-2.696 3.987 0 3.987h8.44c2.69 0 2.683-3.986.002-3.986z"  stroke-width="2" stroke-linecap="round" stroke-linejoin="round"/><path d="M22.422 5.815h2.649v28.67H1V5.815h2.676"  stroke-width="2" stroke-linecap="round" stroke-linejoin="round"/><path d="M6.724 23.11l3.661 4.037 9.456-11.449"  stroke-width="2" stroke-linecap="round" stroke-linejoin="round"/></symbol><symbol fill="none" viewBox="0 0 173 40" id="tinkoff" xmlns="http://www.w3.org/2000/svg"><path fill-rule="evenodd" clip-rule="evenodd" d="M43.538 18.733l.57-1.826-1.885.06c-.158 0-1.317-.034-2.438-.848.084.007.166.02.254.02 1.155 0 2.274-.698 2.72-1.696l.811-1.8c-1.016.013-1.946-.115-1.946-.115-.008 0-.74-.096-1.586-.963-.607-.62-1.36-.95-2.173-.95a3.131 3.131 0 00-.95.152c.044-.146.084-.294.108-.447.258-1.686-.824-2.97-.824-2.97l-1.417-1.757-.879 2.064c-.003.007-.225.492-.621.728-.12-.608-.415-1.29-1.043-1.942-1.186-1.229-2.628-1.414-3.383-1.414-.35 0-.6.04-.66.049l-1.71.337c.098-.382.309-1.05.692-1.65l.945-1.472-2.375.271-.757-1.61-1.465.757L22.172.37 20.82 1.71 19.353.954l-.755 1.609-2.374-.271.945 1.474c.385.6.594 1.264.692 1.647l-1.631-.324-.057-.008a4.27 4.27 0 00-.681-.052c-.756 0-2.198.185-3.38 1.414-.63.65-.925 1.334-1.045 1.942-.394-.235-.614-.71-.614-.71l-.88-2.079-1.44 1.772c-.176.227-1.043 1.435-.808 2.955.025.152.064.3.107.445-.306-.1-.625-.15-.947-.151-.815 0-1.567.329-2.175.949-.843.864-1.572.962-1.566.962 0 0-.77.138-1.963.115l.807 1.802c.448.997 1.568 1.695 2.72 1.695.088 0 .17-.013.256-.02-1.12.815-2.277.849-2.417.849l-1.918-.062.58 1.825c.294.942 1.271 2.5 3.142 2.667-.204.855-.655 1.813-1.646 2.226l-1.43.59.78 1.36c.44.733 1.473 1.59 2.943 1.59.318 0 .625-.033.922-.095.075.335.17.67.282 1.005.436 1.304.06 2.214.055 2.225l-.704 1.48 1.573.416c.02.007.497.138 1.092.138a3.328 3.328 0 001.299-.255c.204.366.451.7.74 1 1.009 1.038 2.44 1.563 4.251 1.563h.006l1.293-.017-2.671 1.113 2.028.983c.738.36 1.611.785 2.502 1.11l-.254.694.699.32c.062.03 1.409.63 3.643.759 0 0 .54.025.836.025.298 0 .831-.026.831-.026 2.22-.132 3.555-.729 3.617-.758l.7-.32-.254-.695c.914-.334 1.82-.778 2.528-1.123l1.991-.97-2.664-1.112 1.3.017c1.812 0 3.244-.526 4.252-1.564.287-.298.533-.632.739-1 .412.171.854.258 1.3.255.585 0 1.067-.13 1.08-.134l1.582-.42-.69-1.453c-.016-.037-.392-.947.044-2.254a10.4 10.4 0 00.282-1.002c.297.062.607.095.927.096A3.435 3.435 0 0042.7 25.56l.772-1.347-1.43-.588c-.992-.412-1.443-1.37-1.644-2.223 1.847-.162 2.836-1.72 3.141-2.668h-.001z" /><path fill-rule="evenodd" clip-rule="evenodd" d="M22.172 5.963c-1.513.001-2.648.498-2.895 1.083l2.895 1.143 2.895-1.143c-.244-.585-1.38-1.082-2.895-1.083zm.03 30.298h-.057c-.917.005-2.181-.183-2.789-.362l-.732 1.985c.483.172 2.118.502 3.551.502 1.43 0 3.067-.33 3.548-.502l-.73-1.983c-.611.177-1.873.365-2.79.36zm5.54-1.975c-.545.31-1.761.774-2.469.989l.594 1.64c1.094-.3 1.998-.65 2.744-1.026l-1.233-.41.364-1.193zm-11.137 0l.365 1.193-1.235.41c.745.375 1.653.725 2.744 1.024l.595-1.64c-.707-.214-1.925-.677-2.47-.987zm5.567-30.22c1.142 0 2.26.273 3.12.753.08-.264.189-.585.338-.92l-.326.039-.34.034-.145-.31-.436-.92-.792.413-.31.157-.247-.243-.862-.854-.86.854-.247.243-.308-.157-.797-.414-.43.92-.147.312-.342-.035-.323-.04c.149.336.257.657.337.92.864-.479 1.982-.752 3.118-.752h-.001zM39.59 14.709c.149.05.3.073.448.073.647 0 1.27-.419 1.484-.897 0 0-1.184-.071-2.456-1.366-.404-.418-.834-.544-1.201-.544-.572 0-1.001.302-1.001.302 1.538.82 1.85 2.136 2.726 2.432zm-35.281.072c.15 0 .3-.022.444-.074.878-.295 1.194-1.61 2.729-2.43 0 0-.43-.302-.998-.302-.37 0-.798.125-1.204.545-1.272 1.294-2.454 1.366-2.454 1.366.212.477.837.896 1.483.896z" /><path fill-rule="evenodd" clip-rule="evenodd" d="M39.127 24.151c-1.19-.588-1.94-2.147-2.122-2.709-.197 3.093-1.704 5.238-3.464 7.303-.915 1.071-1.234 2.113-1.234 2.113s.177-1.18.967-2.141c1.643-1.977 3.204-4.439 3.32-7.286.08-1.986-.429-3.597-1.226-4.925.446 1.382.383 3.076-1.129 4.657 0 0 3.01-3.612-1.197-7.316-1.684-1.409-3.527-2.28-4.475-2.896 3.426 1.12 5.1-.113 5.1-.113-1.094.95-2.51.934-3.39.797.24.116.488.239.753.38 2.89 1.573 5.486 4.161 5.93 7.743v-.028c.67 3.518 2.167 4.421 2.167 4.421zm.88-4.099c.026.003.05.003.076.003 1.61 0 2.156-1.729 2.156-1.729h-.031c-.296 0-2.69-.07-4.384-2.225-1.113-1.417-2.026-2.663-3.83-3.152l-.178-.033-.038-.181c-.05-.276.139-.535.569-.813 2.488-1.633.796-3.716.796-3.716s-.709 1.665-2.299 1.665l-.119-.002c-.18-.01-.354-.015-.53-.053l-.293-.058s.454-1.235-.64-2.368c-.824-.857-1.828-1.002-2.406-1.002-.292 0-.477.038-.477.038.55.72.947 1.914.312 2.651-.549.633-1.888.664-1.888 1.608 0 .4.373.866 1.043 1.286 2.013 1.27 4.012 2.956 4.844 5.215 1.039 2.818-.132 4.688-1.802 5.761 0 0 .524.483 1.283.545.155.015.306.022.447.022 1.604 0 2.433-.754 2.433-.754s-.138 1.041-.97 2.008c-.771.891-1.782 1.418-3.323 1.44 0 0-.049.716.634 1.337.437.391 1.445.52 1.445.52s-1.889.382-2.098 3.177c-.113 1.515-.498 2.04-.498 2.04h.033c4.383 0 4.271-3.766 4.271-3.766s.305 1.116 1.528 1.406c.148.04.306.055.456.055.392 0 .735-.093.735-.093s-.64-1.353-.005-3.245c.527-1.572.442-2.736.442-2.736s.59.895 2.055.903h.015a2.058 2.058 0 001.75-.926c-2.922-1.216-2.633-5.138-2.633-5.138s.379.284 1.119.311zm-29.201 8.693c-1.76-2.065-3.268-4.21-3.466-7.303-.182.563-.931 2.122-2.12 2.71 0 0 1.495-.904 2.166-4.422v.028c.444-3.582 3.04-6.17 5.93-7.741.266-.144.515-.266.752-.381-.878.136-2.296.152-3.39-.797 0 0 1.675 1.232 5.1.112-.947.617-2.79 1.487-4.472 2.896-4.209 3.704-1.199 7.316-1.199 7.316-1.512-1.582-1.575-3.273-1.129-4.657-.797 1.328-1.307 2.939-1.224 4.926.114 2.846 1.674 5.308 3.314 7.286.795.959.973 2.139.973 2.139s-.323-1.04-1.235-2.112zm.704-.682s1.008-.127 1.446-.52c.681-.62.634-1.335.634-1.335-1.543-.022-2.552-.549-3.327-1.44-.829-.966-.967-2.008-.967-2.008s.829.754 2.43.754c.145 0 .295-.007.448-.022a2.365 2.365 0 001.287-.545c-1.672-1.073-2.843-2.943-1.805-5.762.831-2.257 2.829-3.944 4.845-5.216.668-.418 1.04-.884 1.04-1.284 0-.944-1.337-.975-1.885-1.608-.635-.737-.237-1.932.311-2.651 0 0-.183-.038-.476-.038-.578 0-1.581.145-2.406 1.002-1.097 1.134-.64 2.37-.64 2.37l-.294.057c-.174.036-.35.043-.531.053l-.115.001c-1.594 0-2.302-1.664-2.302-1.664s-1.689 2.082.8 3.715c.427.278.615.538.565.813l-.038.18-.181.033c-1.8.49-2.714 1.736-3.83 3.153-1.692 2.156-4.085 2.225-4.381 2.225h-.033s.547 1.729 2.159 1.729c.025 0 .048 0 .076-.003.74-.026 1.12-.31 1.12-.31s.286 3.922-2.635 5.138c0 0 .532.927 1.751.927h.014c1.467-.009 2.056-.904 2.056-.904s-.086 1.165.44 2.736c.635 1.893-.003 3.244-.003 3.244s.34.093.735.093c.152 0 .308-.014.455-.054 1.221-.29 1.527-1.406 1.527-1.406s-.112 3.767 4.273 3.767h.032s-.385-.526-.497-2.04c-.208-2.795-2.099-3.18-2.099-3.18h.001zm9.673-13.879h2.067v.71c-.242-.298-.716-.236-.716-.236v1.024s.016.503.194.721h-1.023c.179-.218.194-.721.194-.721v-1.024s-.471-.062-.716.236v-.71zm-2.252.106c.072.078.142.162.21.246.017.02.032.037.048.06.064.084.127.174.188.264l.042.06c.072.112.142.226.211.345.633 1.093 1.644 1.747 2.542 1.748.899-.001 1.91-.655 2.543-1.748.07-.121.141-.24.215-.35.084-.13.175-.254.27-.375.07-.088.143-.173.217-.252.013-.011.023-.024.036-.035a2.63 2.63 0 011.21-.721l-.225-.13h-.011l-.892-.518-.913-.525-2.444 1.332-.006-.006-.004.006-2.443-1.332-.915.525-.891.517h-.01l-.226.13a2.61 2.61 0 011.21.72c.013.012.022.028.038.04z" /><path fill-rule="evenodd" clip-rule="evenodd" d="M21.395 9.668v.67l-.129-.06c-.005-.005-.195-.046-.522-.307-.541-.42-.552-.808-.552-.808l1.201.505h.002zm.565 3.138v-4.16l-2.642-.898.698 4.03 1.945 1.028zm.993-3.138l1.201-.505s-.01.388-.553.808c-.327.26-.515.302-.52.307l-.128.059v-.669zm1.378 2.111l.694-4.03-2.641.897v4.16l1.947-1.028v.001zm-6.107 10.668c.257.093.569.112.73.112.005-.02.014-.044.023-.074.012-.046.026-.094.037-.145.044-.231.06-.49.064-.66a.926.926 0 01-.347-.367c-.099-.206-.238-.303-.443-.303-.265 0-.55.161-.674.235-.097.575.327 1.097.61 1.201v.001zm5.845-2.206c-.49.534-1.452 1.466-1.498 1.512l-.058.058-3.037-.047a3.15 3.15 0 01-.096.744l-.025.096 3.611.652c.375-.264 1.409-1.02 1.81-1.317-.292-.427-.32-.934-.253-1.29a1.806 1.806 0 01-.454-.408z" /><path fill-rule="evenodd" clip-rule="evenodd" d="M24.48 16.582c-.699.695-1.37.953-1.969 1.013-.11.012-.22.018-.33.018h-.015c-.22 0-.44-.023-.656-.069-.04.156-.089.483.053.792.127.28.385.49.761.63l.127.05.001.135c0 .04.03.925.993 1.171.157-.161.3-.308.404-.432-.196-.463-.092-.936.193-1.168-.011.05-.138 1.21.791 1.642l.154.072-.046.163c-.015.05-.325 1.174.8 1.591l.2.077-.09.193c-.02.042-.46 1.062.579 1.642h2.253v-1.794c-.802-.098-1.14-.743-1.228-1.2-.373-.064-.66-.225-.858-.487-.473-.623-.067-1.195-.06-1.226-.002.005 0 .612.373.988.186.18.406.321.74.353l.162.015.014.167c.003.036.092.86.857.989l-.001-3.66c0-.569.165-1.14.363-1.666h-4.564v.001zm-6.065 1.678l-.06 2.33.266.042.646-2.237-.329-.688-.521.553h-.002zm1.402 8.63a.132.132 0 01-.093-.044.13.13 0 01-.033-.098.132.132 0 01.142-.123c.077.003.13.069.127.14a.135.135 0 01-.143.125zm5.73 2.063c.02 0 .042.003.063.009.404.115.505 1.568 1.21 1.697.07.015.134.018.19.018.204 0 .325-.086.457-.242 0 0-.356-.558-.621-.935-.352-.494-.626-1.091-1.283-1.091-.016 0-.035 0-.052.002a.653.653 0 00-.349.118 1.357 1.357 0 00-.739-.226c-.41 0-.73.19-.891.19h-.006l-1.466-.146c-.23-.023-.412-.254-.477-.344l-.026-.04c0-.04 0-.08-.002-.116-.05-1.202-.978-1.716-1.31-1.725 0 0 .04-.228-.05-.315l-.322.393-1.063-.534.758.887-.641.722c-.081.082-.07.192-.037.24l.277.245.351-.214c.017-.013.05-.017.089-.017.097 0 .242.025.373.025.144 0 .268-.03.283-.165-.044.446-.457 1.22-.186 1.829l.2.46-1.296-.188-.607 1.027c-.187.342-.217.711-.037.912l.227.285s.319-.338.39-.56l-.103-.114c-.087-.096-.082-.181-.03-.284l.382-.633 1.53.362.08-.139c.105-.173.255-.224.419-.224.068 0 .137.008.209.02.284.056.751.131 1.219.131.514 0 1.023-.092 1.294-.396.555.824 1.68.954 1.59 1.373l-.295 1.411c.196-.009.384-.022.563-.046l.282-1.468c.023-.124.043-.25.06-.375-.108-.11-.37-.343-.52-.626-.197-.382-.09-.582-.274-1.078 0 0 .057-.116.187-.116v.001z" /><path fill-rule="evenodd" clip-rule="evenodd" d="M17.726 30.288s.508-.208.554-.358l-.069-.169c-.047-.11-.042-.23.052-.295l.547-.38.916.177s-.166-.208-.15-.486l-.873-.184-.825.502a.801.801 0 00-.262.953l.11.241v-.001zM24.2 32.68c.163-.007.346-.009.543-.009 0 0 .471-1.38.498-1.424-.35-.163-.692-.344-1.023-.541.14.21.479.449.412.634l-.43 1.34z" /><path fill-rule="evenodd" clip-rule="evenodd" d="M28.683 24.498h-13.02v4.906c0 2.007 1.45 3.262 3.59 3.262 1.786 0 2.257.07 2.92.731.46-.458.838-.628 1.617-.692l.018-.075.41-1.272c-.023-.029-.693-.792-.693-.792-.266.089-.49.104-.866.104-.385 0-.82-.046-1.292-.134a.597.597 0 00-.135-.016c-.058 0-.062.005-.078.033l-.08.136-.15.247-.281-.066-1.25-.295-.172.283.027.031.151.168-.067.22c-.092.284-.39.618-.481.71l-.312.335-.285-.359-.214-.269c-.225-.252-.277-.637-.15-1.041a.025.025 0 01-.013.004l-.352.147-.158-.346-.112-.244a1.194 1.194 0 01.396-1.44l1.005-.57.958.189c.023-.092.058-.42.084-.505-.018-.002-.036-.005-.054-.005l-.552.205-.531-.367s-.208-.201-.02-.402l.514-.782-1.305-1.64 2.006.825.134-.165.27-.326.307.294c.081.079.137.18.162.29.552.215 1.543.852 1.63 1.886l-.31.124v.008c.071.084.13.119.149.122l1.431.141c.037-.007.081-.023.132-.037.18-.061.446-.15.762-.15.259 0 .508.06.747.173a1.08 1.08 0 01.324-.067l.069-.002c.765 0 1.146.574 1.452 1.032.051.08.102.154.155.228.268.379.618.932.632.956l.158.246-.194.226c-.148.173-.373.375-.756.375-.087 0-.174-.01-.259-.026a1.096 1.096 0 01-.229-.07 5.892 5.892 0 01-.04.243l-.25 1.313c1.5-.37 2.454-1.506 2.454-3.132l-.003-4.906zm-13.02-.395H25.79c-.505-.524-.497-1.186-.37-1.616a1.67 1.67 0 01-.377-.25 195.63 195.63 0 01-1.919 1.395l-.068.046-3.974-.72H19c-.095 0-.235-.004-.387-.023a.387.387 0 01-.693.14.387.387 0 01-.07-.293l.016-.086c-.409-.289-.789-.936-.62-1.617l.016-.071.058-.042c.058-.04.118-.077.18-.11l-.289-.047a.2.2 0 01-.164-.225.197.197 0 01.227-.165l.687.108.063-2.426 1.023-1.085.64 1.347-.674 2.335.607.096a.199.199 0 01.097.345.195.195 0 01-.127.046h-.031l-.496-.082c.007.017.016.025.023.04a.542.542 0 00.238.22l3.029.05c.128-.126.446-.438.774-.768a1.637 1.637 0 01-1.063-1.354c-.415-.178-.704-.444-.863-.79-.194-.43-.125-.86-.073-1.068-.404-.147-.83-.417-1.263-.849h-4.564c.197.526.362 1.097.362 1.664v5.855z" /><path fill-rule="evenodd" clip-rule="evenodd" d="M19.833 26.625a.133.133 0 00-.097.032.132.132 0 00-.045.093.13.13 0 00.033.097.13.13 0 00.093.043.136.136 0 00.143-.123.135.135 0 00-.127-.142zm6.035 10.288l-.595-1.64c.708-.216 1.924-.68 2.47-.988l-.364 1.193 1.232.41c-.746.374-1.649.724-2.743 1.024v.001zm-3.693 1.472c-1.433 0-3.068-.33-3.55-.502l.731-1.984c.608.178 1.871.366 2.789.36h.058c.916.006 2.179-.183 2.79-.36l.73 1.984c-.482.173-2.117.502-3.548.502zm-6.439-2.497l1.234-.41-.365-1.193c.544.308 1.763.774 2.468.988l-.594 1.64c-1.091-.3-1.998-.651-2.742-1.025zm12.93-.364l-.75-.289.208-.776.227-.846s-1.328.723-3.201 1.264c-.532.153-.933.223-.933.223v.576s-1.003.174-2.014.174h-.058c-1.014 0-2.014-.174-2.014-.174V35.1s-.403-.07-.934-.222c-1.872-.542-3.2-1.264-3.2-1.264l.224.846.213.776-.753.289-.835.312c.956.463 2.282 1.136 3.494 1.468l-.285.783s1.538.702 4.1.71h.035c2.566-.008 4.104-.71 4.104-.71l-.289-.783c1.214-.332 2.542-1.004 3.493-1.468l-.831-.312zM19.043 3.935l.341.037.147-.312.43-.92.796.413.31.159 1.106-1.1.862.855.247.245.31-.159.792-.413.436.92.145.312.34-.037.326-.038a7.864 7.864 0 00-.338.922c-.86-.482-1.979-.754-3.12-.754-1.136 0-2.253.272-3.117.754a7.896 7.896 0 00-.337-.922l.323.038h.001zm3.13.609c1.527 0 2.748.508 3.423 1.047 0 0 .201-1.209.885-2.275l-1.23.139-.643-1.368-1.236.638-1.2-1.187-1.195 1.187-1.237-.638-.642 1.369-1.23-.14c.685 1.066.884 2.274.884 2.274.68-.54 1.896-1.046 3.42-1.046zm19.35 20.335s-.531.927-1.75.927h-.016c-1.464-.01-2.055-.904-2.055-.904s.085 1.164-.441 2.735c-.635 1.894.004 3.245.004 3.245s-.341.094-.735.094c-.15 0-.307-.015-.456-.055-1.223-.29-1.528-1.405-1.528-1.405s.113 3.766-4.271 3.766h-.035s.387-.526.502-2.04c.207-2.795 2.096-3.18 2.096-3.18s-1.008-.127-1.445-.518c-.683-.62-.635-1.337-.635-1.337 1.542-.022 2.554-.547 3.324-1.44a4.25 4.25 0 00.97-2.008s-.83.754-2.433.754a4.64 4.64 0 01-.446-.022c-.76-.061-1.284-.545-1.284-.545 1.67-1.073 2.84-2.945 1.803-5.762-.832-2.257-2.832-3.944-4.844-5.215-.67-.419-1.044-.885-1.044-1.286 0-.943 1.34-.973 1.89-1.607.634-.737.236-1.932-.314-2.651 0 0 .185-.038.477-.038.58 0 1.582.145 2.406 1.002 1.094 1.134.64 2.37.64 2.37l.293.057c.176.036.35.044.532.053l.117.001c1.59 0 2.3-1.665 2.3-1.665s1.69 2.083-.797 3.716c-.429.278-.618.538-.569.813l.04.181.176.031c1.804.491 2.717 1.738 3.832 3.154 1.692 2.156 4.087 2.225 4.382 2.225h.032s-.546 1.729-2.157 1.729c-.026 0-.05 0-.076-.003-.74-.026-1.12-.31-1.12-.31s-.288 3.922 2.635 5.138zm-1.439-4.297c1.974 0 2.635-2.012 2.663-2.098l.22-.71-.74.023h-.002c-.262 0-2.44-.058-3.984-2.024l-.147-.182c-1.009-1.286-1.966-2.508-3.677-3.066.068-.06.141-.114.218-.163.908-.598 1.437-1.324 1.568-2.168.195-1.27-.614-2.28-.649-2.322l-.55-.682L34.66 8c-.024.05-.601 1.342-1.816 1.342h-.09a5.223 5.223 0 01-.241-.013c.043-.578-.062-1.47-.87-2.307-.972-1.009-2.163-1.16-2.787-1.16-.333 0-.554.042-.579.044l-.83.165.512.676c.402.522.767 1.483.335 1.986-.139.161-.423.29-.694.42-.56.258-1.324.618-1.324 1.531 0 .591.459 1.212 1.29 1.737 2.457 1.548 3.975 3.165 4.63 4.949 1.013 2.743-.309 4.31-1.594 5.134l-.575.37.505.464c.068.06.683.604 1.594.683.173.011.338.02.493.02.583 0 1.08-.092 1.485-.214-.12.21-.261.41-.42.593-.733.852-1.636 1.24-2.935 1.261l-.483.007-.037.485c-.005.098-.04.998.808 1.762.13.118.288.216.453.295-.577.52-1.162 1.425-1.275 2.974-.096 1.293-.404 1.773-.407 1.778l-.534.816.964.012c1.593 0 2.812-.438 3.656-1.311a4.145 4.145 0 00.954-1.616c.469.4 1.065.62 1.68.619.451 0 .828-.096.87-.105l.615-.164-.272-.575c-.02-.046-.533-1.2.019-2.849.238-.712.359-1.35.418-1.847.388.203.906.37 1.577.372 1.524 0 2.195-1.14 2.225-1.187l.3-.525-.556-.228c-1.815-.755-2.217-2.783-2.298-3.88.165.031.352.06.563.066l.094.003z" /><path fill-rule="evenodd" clip-rule="evenodd" d="M37.865 11.974c.367 0 .797.126 1.2.545 1.273 1.293 2.457 1.366 2.457 1.366-.215.477-.838.896-1.484.896-.149 0-.3-.023-.447-.075-.876-.295-1.19-1.61-2.726-2.43 0 0 .427-.302 1-.302zm-1.25.77c.735.392 1.164.92 1.54 1.386.37.456.72.895 1.271 1.077.194.067.4.1.612.1.823 0 1.651-.506 1.965-1.206l.316-.7-.764-.046c-.036 0-1.018-.091-2.11-1.209-.45-.46-.995-.7-1.58-.7-.716 0-1.247.359-1.305.395l-.702.496.756.406zm.345 6.986v.027c-.444-3.582-3.04-6.169-5.93-7.741a18.533 18.533 0 00-.753-.381c.88.136 2.296.152 3.39-.797 0 0-1.674 1.232-5.1.112.947.617 2.791 1.487 4.475 2.896 4.206 3.704 1.197 7.316 1.197 7.316 1.513-1.58 1.575-3.273 1.13-4.657.796 1.328 1.304 2.939 1.226 4.926-.116 2.846-1.678 5.308-3.321 7.286-.79.959-.965 2.139-.965 2.139s.318-1.04 1.232-2.111c1.76-2.067 3.267-4.211 3.464-7.303.182.562.933 2.12 2.122 2.708 0 0-1.495-.903-2.167-4.42zM14.074 33.282c-4.385 0-4.273-3.766-4.273-3.766s-.307 1.116-1.527 1.406c-.15.037-.303.055-.456.054-.393 0-.735-.093-.735-.093s.639-1.353.003-3.245c-.525-1.57-.44-2.736-.44-2.736s-.59.895-2.055.904h-.015c-1.218 0-1.75-.927-1.75-.927 2.921-1.216 2.635-5.138 2.635-5.138s-.381.284-1.12.311h-.077c-1.612 0-2.159-1.727-2.159-1.727h.034c.298 0 2.69-.07 4.38-2.225 1.115-1.417 2.03-2.663 3.83-3.152l.181-.033.038-.181c.05-.275-.138-.535-.566-.813-2.488-1.633-.799-3.715-.799-3.715S9.91 9.87 11.505 9.87h.115c.18-.01.357-.018.531-.055l.293-.057s-.455-1.235.642-2.369c.825-.857 1.826-1.002 2.405-1.002.294 0 .475.038.475.038-.547.72-.944 1.914-.311 2.651.55.634 1.887.664 1.887 1.607 0 .401-.373.867-1.041 1.287-2.015 1.27-4.014 2.956-4.845 5.215-1.037 2.818.134 4.688 1.805 5.762 0 0-.526.483-1.286.544a4.787 4.787 0 01-.448.022c-1.602 0-2.431-.753-2.431-.753s.138 1.04.967 2.008c.774.892 1.784 1.417 3.326 1.439 0 0 .05.716-.633 1.337-.438.393-1.446.52-1.446.52s1.89.383 2.098 3.177c.114 1.515.497 2.04.497 2.04h-.031zm.465-.3c-.001-.006-.307-.486-.405-1.779-.116-1.55-.7-2.455-1.279-2.974a1.82 1.82 0 00.453-.295c.849-.764.813-1.663.807-1.762l-.032-.485-.486-.007c-1.296-.02-2.2-.408-2.933-1.26a3.955 3.955 0 01-.42-.594c.404.123.898.215 1.483.215.156 0 .32-.01.492-.021a2.902 2.902 0 001.597-.681l.505-.466-.575-.37c-1.289-.825-2.606-2.39-1.594-5.134.655-1.784 2.169-3.4 4.63-4.95.832-.524 1.287-1.145 1.287-1.736 0-.913-.762-1.273-1.321-1.53-.273-.131-.557-.26-.694-.421-.433-.502-.07-1.464.334-1.986l.515-.676-.835-.165c-.023-.003-.243-.044-.578-.044-.622 0-1.812.152-2.782 1.16-.81.838-.916 1.73-.874 2.307a5.17 5.17 0 01-.24.014h-.09c-1.219 0-1.794-1.294-1.816-1.343l-.343-.809-.554.682c-.031.041-.843 1.053-.644 2.322.13.843.66 1.57 1.567 2.168.099.064.167.118.217.163-1.714.558-2.669 1.78-3.678 3.066l-.145.182C4.565 17.74 2.38 17.8 2.12 17.8l-.743-.024.226.71c.027.085.685 2.097 2.66 2.097l.095-.003a3.41 3.41 0 00.564-.067c-.081 1.097-.485 3.126-2.3 3.88l-.555.23.3.524a2.608 2.608 0 002.23 1.187 3.387 3.387 0 001.572-.37c.059.497.181 1.133.419 1.845.552 1.647.038 2.803.018 2.849l-.272.575.615.163c.042.011.42.106.869.106a2.575 2.575 0 001.68-.619c.168.516.456 1.1.954 1.616.847.871 2.065 1.311 3.656 1.311l.964-.012-.533-.816z" /><path fill-rule="evenodd" clip-rule="evenodd" d="M5.28 12.52c.406-.42.835-.546 1.204-.546.568 0 .999.303.999.303-1.536.82-1.852 2.134-2.73 2.43-.143.05-.293.075-.444.074-.646 0-1.27-.418-1.483-.895 0 0 1.182-.073 2.454-1.366zm-.971 2.787c.21 0 .418-.032.614-.1.55-.182.9-.62 1.27-1.077.378-.465.803-.993 1.54-1.385l.757-.408-.705-.496c-.057-.036-.585-.393-1.301-.393-.587 0-1.132.24-1.58.699-1.094 1.119-2.075 1.209-2.11 1.21l-.762.045.311.7c.317.7 1.143 1.205 1.966 1.205zm3.444 6.125c-.08-1.988.427-3.598 1.224-4.926-.443 1.383-.383 3.076 1.132 4.658 0 0-3.012-3.614 1.197-7.316 1.684-1.41 3.525-2.28 4.472-2.898-3.425 1.12-5.098-.113-5.098-.113 1.094.95 2.51.936 3.39.797-.239.117-.488.238-.754.382-2.89 1.572-5.484 4.16-5.93 7.741v-.026c-.671 3.517-2.165 4.42-2.165 4.42 1.19-.589 1.937-2.148 2.12-2.709.198 3.092 1.704 5.238 3.464 7.303.914 1.07 1.235 2.111 1.235 2.111s-.177-1.179-.97-2.138c-1.64-1.978-3.202-4.44-3.317-7.286zm13.43-7.248v.71c.245-.298.716-.237.716-.237v1.024s-.015.504-.194.722h1.023c-.178-.218-.195-.722-.195-.722v-1.024s.473-.061.716.238v-.711h-2.067.001zm-.439-4.213c.327.26.517.304.522.307l.127.06v-.67l-1.2-.505s.01.388.551.808zm2.857 0c.543-.42.554-.808.554-.808l-1.202.506v.67l.127-.06c.006-.004.194-.048.521-.308z" /><path fill-rule="evenodd" clip-rule="evenodd" d="M22.173 8.19l-2.895-1.146c.246-.584 1.38-1.08 2.895-1.081 1.515 0 2.65.497 2.896 1.081L22.173 8.19zm2.158 3.59l-1.946 1.027V8.646l2.64-.898-.694 4.03v.002zm1.205 1.104l.89.517h.012l.224.13a2.617 2.617 0 00-1.209.722l-.034.035a4.28 4.28 0 00-.219.252l-.04.053c-.07.088-.135.18-.196.274l-.034.048a6.467 6.467 0 00-.213.35c-.636 1.093-1.646 1.747-2.544 1.749-.899-.002-1.91-.656-2.543-1.75a7.475 7.475 0 00-.211-.343l-.042-.062a7.003 7.003 0 00-.187-.263c-.016-.023-.031-.04-.047-.06a5.096 5.096 0 00-.212-.246c-.015-.011-.025-.026-.039-.04a2.621 2.621 0 00-1.209-.719l.227-.13h.009l.892-.517.914-.526 2.443 1.333.005-.005.007.005 2.442-1.333.914.526zm3.51 3.7c-.2.526-.364 1.096-.364 1.663l.002 3.66c-.763-.127-.855-.95-.857-.987l-.014-.167-.165-.015a1.165 1.165 0 01-.736-.352c-.376-.376-.376-.983-.376-.989-.004.031-.41.6.06 1.224.199.264.488.426.86.49.087.456.427 1.101 1.228 1.2v1.79h-2.253c-1.039-.578-.6-1.596-.578-1.64l.087-.194-.198-.075c-1.126-.418-.815-1.543-.8-1.592l.046-.164-.155-.071c-.928-.432-.802-1.594-.79-1.642-.286.232-.389.704-.192 1.17-.107.122-.25.269-.406.43a1.264 1.264 0 01-.993-1.172l-.001-.136-.127-.048c-.375-.139-.633-.35-.761-.63-.142-.31-.092-.635-.053-.793.216.045.435.068.656.07h.015c.112 0 .221-.008.33-.018.6-.06 1.27-.318 1.97-1.013h4.566zm-2.815 15.951l.252-1.313.04-.242c.156.06.321.093.488.096.383 0 .607-.204.756-.375l.192-.226-.157-.247a24.4 24.4 0 00-.632-.956 5.094 5.094 0 01-.153-.228c-.306-.458-.689-1.032-1.455-1.032l-.068.003c-.11.006-.22.028-.324.066a1.747 1.747 0 00-.747-.171c-.26.006-.517.056-.76.147-.052.015-.098.032-.134.039l-1.431-.141a.41.41 0 01-.148-.123v-.008l.31-.123c-.087-1.035-1.08-1.671-1.631-1.887a.583.583 0 00-.162-.291l-.307-.292-.27.324-.133.166-2.007-.825 1.305 1.64-.514.782c-.19.2.02.402.02.402l.531.367.552-.206c.018 0 .035.004.054.007-.026.084-.061.413-.084.504l-.957-.188-1.005.57a1.19 1.19 0 00-.396 1.44l.11.244.16.345.351-.145.014-.007c-.127.405-.075.79.15 1.043l.214.268.284.36.312-.335c.092-.093.39-.426.481-.713l.067-.218-.151-.167-.026-.031.171-.283 1.25.295.281.065.15-.248.081-.134c.015-.03.019-.034.077-.034a.56.56 0 01.136.016c.426.084.859.129 1.293.133.373 0 .598-.014.864-.103 0 0 .67.762.694.793l-.411 1.27-.019.076c-.777.063-1.156.234-1.614.693-.665-.66-1.135-.731-2.921-.731-2.14 0-3.59-1.255-3.59-3.263v-4.905h13.02l.002 4.905c0 1.627-.953 2.762-2.455 3.132zm-8.019-2.773l.068.17c-.046.147-.554.357-.554.357l-.108-.24a.801.801 0 01.262-.955l.823-.502.874.185a.773.773 0 00.149.486l-.915-.176-.548.38c-.092.064-.1.184-.05.295zm7.88 1.385l-.28 1.468c-.18.025-.37.04-.563.046l.295-1.409c.088-.42-1.034-.55-1.59-1.374-.271.305-.78.396-1.293.396a6.56 6.56 0 01-1.22-.131 1.34 1.34 0 00-.208-.02c-.165 0-.314.05-.418.225l-.081.139-1.531-.362-.381.632c-.053.103-.058.188.029.284l.104.113c-.072.223-.39.561-.39.561l-.228-.285c-.18-.2-.15-.57.037-.912l.607-1.028 1.297.189-.201-.461c-.271-.609.142-1.382.186-1.828-.015.135-.139.165-.282.165-.132 0-.277-.024-.374-.024-.038 0-.072.003-.089.016l-.351.214-.277-.245c-.034-.046-.044-.158.037-.241l.642-.721-.758-.887 1.06.535.325-.394c.089.088.05.315.05.315.33.01 1.26.523 1.309 1.724.003.037.003.078.003.118l.025.04c.066.09.247.323.477.343l1.466.146h.006c.161 0 .481-.19.891-.19.225 0 .474.058.74.226 0 0 .133-.107.349-.118.016-.002.035-.002.05-.002.658 0 .931.595 1.285 1.09.265.377.62.936.62.936-.13.156-.253.242-.457.242a.94.94 0 01-.19-.018c-.704-.13-.807-1.582-1.209-1.697a.244.244 0 00-.064-.008c-.13 0-.186.115-.186.115.184.495.076.695.275 1.077.147.283.41.515.518.626 0 0-.029.215-.061.375zm-1.349 1.525c-.196 0-.379.002-.543.009l.43-1.34c.067-.187-.273-.426-.412-.636.211.134.76.427 1.024.543a70.35 70.35 0 00-.499 1.424zm-6.388-12.08l.061-2.33.522-.554.328.688-.646 2.237-.266-.04.001-.002zm.376.722c.079.152.199.279.346.366a4.28 4.28 0 01-.064.66c-.011.051-.023.099-.038.146-.007.03-.016.054-.022.074-.16 0-.473-.02-.728-.113-.284-.104-.708-.626-.61-1.201.123-.075.407-.236.673-.236.205 0 .344.097.443.304zm6.045.626c-.4.297-1.435 1.053-1.81 1.316l-3.612-.651.026-.096a3.21 3.21 0 00.098-.746l3.035.049.058-.058c.046-.046 1.008-.978 1.498-1.513.116.147.262.285.454.408-.065.358-.039.864.253 1.29zm-4.91-5.357c.435.432.859.701 1.263.849-.052.208-.121.64.073 1.068.159.346.448.612.864.79.047.427.316 1.07 1.063 1.354-.328.33-.647.642-.774.767l-3.03-.047a.543.543 0 01-.238-.222c-.005-.015-.016-.023-.023-.04l.496.082h.03a.195.195 0 00.195-.163.198.198 0 00-.163-.228l-.608-.097.674-2.333-.639-1.348-1.024 1.085-.062 2.426-.689-.11c-.106-.02-.207.059-.227.166a.201.201 0 00.165.227l.289.044a2.356 2.356 0 00-.18.112l-.058.042-.016.071c-.168.682.211 1.328.62 1.617l-.015.087a.387.387 0 00.07.292.381.381 0 00.317.164.387.387 0 00.375-.303c.152.018.292.022.387.022h.082l3.973.72.068-.046c.317-.221 1.524-1.102 1.92-1.394.109.093.23.179.377.249-.128.43-.136 1.092.37 1.617H15.663v-5.855c0-.568-.165-1.138-.362-1.665h4.564zm-.548-8.833l2.643.897v4.16l-1.945-1.028-.698-4.03v.001zm6.448-.502c0-1.015-1.705-1.929-3.587-1.929h-.012c-1.882 0-3.587.914-3.587 1.929l.037.25.752 4.321-.755.439-1.953 1.143h.007s-.438.226-.643.365c-.743.517-.902 1.272-.47 1.584.106-.615.593-1.258 1.501-1.258.656 0 1.155.339 1.56.846.103.128.201.265.292.412.114.186.228.35.34.507h-5.032c.37.745.721 1.533.721 2.39v11.157c0 2.7 2.073 3.988 4.316 3.988 1.733 0 1.966-.079 2.922.875.951-.954 1.186-.875 2.92-.875 2.244 0 4.313-1.289 4.313-3.988V18.247c0-.857.352-1.645.724-2.39h-5.035c.114-.157.227-.321.34-.507.092-.147.19-.284.292-.412.407-.51.905-.847 1.561-.847.909 0 1.394.644 1.501 1.26.432-.313.276-1.068-.473-1.585-.199-.139-.64-.365-.64-.365h.008l-1.957-1.143-.75-.439.75-4.322.037-.25z" /><path d="M58.102 25.843h3.464v-8.06h4.757v-2.932H53.345v2.932h4.757v8.06zM76.83 14.851l-5.773 6.396v-6.396h-3.35v10.992h2.957l5.773-6.397v6.397h3.349V14.851H76.83zm8.841 6.905h5.381v4.087h3.349V14.851h-3.349v4.018h-5.38V14.85h-3.35v10.992h3.35v-4.087zm18.055 4.087c.762 0 1.455-.07 2.102-.254 1.732-.485 2.863-1.893 2.863-3.81 0-1.825-.97-3.095-2.517-3.672-.739-.277-1.617-.3-2.448-.3h-3.441V14.85h-3.349v10.992h6.79zm-3.441-5.45h2.864c.462 0 .9 0 1.293.139.554.184.877.646.877 1.2 0 .578-.323 1.063-.854 1.294-.369.161-.739.161-1.316.161h-2.864v-2.794zm13.487 1.293h.924l3.995 4.157h4.457l-5.566-5.727 5.358-5.265h-4.203l-4.041 4.133h-.924v-4.133h-3.349v10.992h3.349v-4.157z" /><path d="M130.039 14.55c-4.503 0-7.205 2.54-7.205 5.82 0 3.279 2.702 5.82 7.205 5.82 4.48 0 7.182-2.541 7.182-5.82 0-3.28-2.702-5.82-7.182-5.82zm0 8.96c-2.24 0-3.672-1.34-3.672-3.14 0-1.802 1.432-3.118 3.672-3.118 2.217 0 3.672 1.316 3.672 3.117 0 1.802-1.455 3.141-3.672 3.141zm18.334-8.175v-1.108h-3.349v1.108c-4.203.092-6.72 1.87-6.72 5.011s2.517 4.78 6.72 4.873v1.109h3.349v-1.109c4.226-.092 6.743-1.732 6.743-4.873 0-3.14-2.517-4.919-6.743-5.01zm-3.349 7.529c-2.309-.093-3.325-1.04-3.325-2.518 0-1.478 1.016-2.54 3.325-2.632v5.15zm3.349 0v-5.15c2.332.092 3.325 1.154 3.325 2.632 0 1.478-.993 2.425-3.325 2.518zm17.884-7.529v-1.108h-3.349v1.108c-4.203.092-6.72 1.87-6.72 5.011s2.517 4.78 6.72 4.873v1.109h3.349v-1.109c4.226-.092 6.743-1.732 6.743-4.873 0-3.14-2.517-4.919-6.743-5.01zm-3.349 7.529c-2.309-.093-3.325-1.04-3.325-2.518 0-1.478 1.016-2.54 3.325-2.632v5.15zm3.349 0v-5.15c2.332.092 3.325 1.154 3.325 2.632 0 1.478-.993 2.425-3.325 2.518z" /></symbol><symbol fill="none" viewBox="0 0 66 35" id="truck" xmlns="http://www.w3.org/2000/svg"><path d="M10.983 33.65a5.272 5.272 0 100-10.545 5.272 5.272 0 000 10.544zM39.802 33.65a5.272 5.272 0 100-10.545 5.272 5.272 0 000 10.544z"  stroke-width="2" stroke-miterlimit="10" stroke-linecap="round" stroke-linejoin="round"/><path d="M50.345 33.65a5.272 5.272 0 100-10.545 5.272 5.272 0 000 10.544zM16.255 27.206h18.407"  stroke-width="2" stroke-miterlimit="10" stroke-linecap="round" stroke-linejoin="round"/><path d="M55.617 27.206l6.91-3.012v-3.915H13.72V8.122H4.94L1.18 16.807v9.914h4.724M63.175 14.893L12.063 5.272a1.324 1.324 0 01-1.056-1.548l.253-1.348a1.324 1.324 0 011.548-1.056l51.112 9.621c.72.136 1.192.828 1.057 1.548l-.253 1.348a1.328 1.328 0 01-1.549 1.056zM33.939 9.389v10.89"  stroke-width="2" stroke-miterlimit="10" stroke-linecap="round" stroke-linejoin="round"/><path d="M13.72 12.295h3.342l2.788 7.984M33.939 13.334h4.875l2.182 6.945M62.527 20.28v-5.51M56.739 20.279v-6.651M53.517 20.279v-3.993H44.06v3.993M19.85 20.28v6.926M28.683 20.28v6.926"  stroke-width="2" stroke-miterlimit="10" stroke-linecap="round" stroke-linejoin="round"/></symbol><symbol fill="none" viewBox="0 0 40 26" id="truck2" xmlns="http://www.w3.org/2000/svg"><path d="M5.222 6.63h7.037M3.111 15.074h4.222M1 10.852h8.444M6.63 3.111v-1C6.63 1.501 7.122 1 7.725 1h17.514c.602 0 1.094.5 1.094 1.111v18.185c0 .61-.492 1.111-1.095 1.111h-7.35M10.852 21.408H7.725a1.107 1.107 0 01-1.095-1.112v-1.703M29.037 21.407H27.39a1.06 1.06 0 01-1.057-1.055v-7.39M39 12.963v7.389a1.06 1.06 0 01-1.056 1.055h-1.759"  stroke-width="2" stroke-miterlimit="10" stroke-linecap="round" stroke-linejoin="round"/><path d="M26.333 3.814h9.5L39 12.963M14.37 24.926a3.519 3.519 0 100-7.037 3.519 3.519 0 000 7.037zM32.667 24.926a3.519 3.519 0 100-7.037 3.519 3.519 0 000 7.037z"  stroke-width="2" stroke-miterlimit="10" stroke-linecap="round" stroke-linejoin="round"/><path d="M39 12.963h-6.333V3.814"  stroke-width="2" stroke-miterlimit="10" stroke-linecap="round" stroke-linejoin="round"/></symbol><symbol fill="none" viewBox="0 0 25 40" id="warning" xmlns="http://www.w3.org/2000/svg"><path d="M8.833 38.865l14.975-21.018c.411-.595.14-.8-.605-.8h-7.067c-.744 0-1.255-.71-1.133-1.416l2.429-14.4"  stroke-width="2" stroke-miterlimit="10" stroke-linecap="round" stroke-linejoin="round"/><path d="M17.432 1.152L1.286 21.694c-.453.57-.213 1.093.532 1.093h7.82c.745 0 1.309.382 1.25 1.097L8.832 38.945"  stroke-width="2" stroke-miterlimit="10" stroke-linecap="round" stroke-linejoin="round"/></symbol><symbol fill="none" viewBox="0 0 26 38" id="waterdrop" xmlns="http://www.w3.org/2000/svg"><path d="M13.167 32.555a8.312 8.312 0 01-8.313-8.313M13.167 36.075c-6.535 0-11.833-5.298-11.833-11.833S7.25 8.684 13.167 1.925M13.167 36.075C19.702 36.075 25 30.777 25 24.242S19.083 8.684 13.167 1.925"  stroke-width="2" stroke-miterlimit="10" stroke-linecap="round" stroke-linejoin="round"/></symbol><symbol fill="none" viewBox="0 0 36 27" id="waterfilter" xmlns="http://www.w3.org/2000/svg"><path d="M11.453 9.395h-7.16V6.67c0-.643.521-1.165 1.164-1.165h4.83c.644 0 1.165.522 1.165 1.165v2.724h.001zM8.158 26h-.572A2.391 2.391 0 015.2 23.76L4.292 9.396h7.161l-.908 14.364A2.392 2.392 0 018.158 26zM21.237 9.395h-7.16V6.67c0-.643.521-1.165 1.164-1.165h4.83c.644 0 1.165.522 1.165 1.165v2.724h.001zM17.943 26h-.572a2.392 2.392 0 01-2.387-2.24l-.908-14.364h7.161l-.908 14.364A2.392 2.392 0 0117.943 26zM31.021 9.395h-7.16V6.67c0-.643.521-1.165 1.164-1.165h4.83c.644 0 1.165.522 1.165 1.165v2.724h.001zM27.727 26h-.572a2.391 2.391 0 01-2.387-2.24L23.86 9.396h7.161l-.908 14.364A2.392 2.392 0 0127.727 26z"  stroke-width="2" stroke-miterlimit="10" stroke-linecap="round" stroke-linejoin="round"/><path d="M33.148 9.395H2.165c-.704 0-1.247-.62-1.155-1.318l.802-6.065A1.165 1.165 0 012.967 1h29.378c.585 0 1.079.433 1.155 1.012l.803 6.065a1.165 1.165 0 01-1.155 1.318zM7.872 20v2.593M17.656 19.981v2.593M27.44 19.981v2.593"  stroke-width="2" stroke-miterlimit="10" stroke-linecap="round" stroke-linejoin="round"/></symbol><symbol fill="none" viewBox="0 0 34 30" id="waterhouse" xmlns="http://www.w3.org/2000/svg"><path d="M8.37 9.671v14.792c0 .561.387 1.02.862 1.02h18.962c.474 0 .862-.459.862-1.02V9.664"  stroke-width="2" stroke-miterlimit="10" stroke-linecap="round" stroke-linejoin="round"/><path d="M4.719 12.56L18.713 1l13.993 11.56M8.37 17.573H5.184v7.91H1M1 28.928h17.713v-3.445"  stroke-width="2" stroke-miterlimit="10" stroke-linecap="round" stroke-linejoin="round"/></symbol><symbol fill="none" viewBox="0 0 12 9" id="yes" xmlns="http://www.w3.org/2000/svg"><path d="M1 4.5L5.4 8 11 1"  stroke-width="2" stroke-linecap="round" stroke-linejoin="round"/></symbol><symbol fill="none" viewBox="0 0 32 30" id="yesstar" xmlns="http://www.w3.org/2000/svg"><path d="M16 1l5.009 8.713L31 11.695l-6.896 7.367L25.271 29 16 24.84 6.73 29l1.166-9.938L1 11.695l9.992-1.982L16 1z"  stroke-width="2" stroke-miterlimit="10" stroke-linecap="round" stroke-linejoin="round"/><path d="M13 16l2.64 2L19 14"  stroke-width="2" stroke-linecap="round" stroke-linejoin="round"/></symbol></svg>